STARTFONT 2.1
FONT -AmsteinGraphics-DMCP-Normal-R-Normal--9-90-173-173-P-220--
SIZE 9 173 173
FONTBOUNDINGBOX 17 34 0 -6
STARTPROPERTIES 41
FAMILY_NAME "DMCP"
DEFAULT_CHAR -1
FOUNDRY "AmsteinGraphics"
COPYRIGHT "Copyright (c) 2022 SwissMicros"
CODEPAGE "MS Windows 1252 Western (ANSI)"
ENC_MODE 2
ENC_ID 1
CREATION_YEAR 2022
WEIGHT_NAME "Normal"
SLANT "R"
SETWIDTH_NAME "Normal"
SPACING "P"
WEIGHT 400
HI_VERSION 1
CP_RANGE_1 65535
CP_RANGE_2 65535
FONTNAME_REGISTRY "-"
CHARSET_REGISTRY "ISO10646"
CHARSET_ENCODING "1"
BREAK_CHAR 32
PIXEL_SIZE 22
POINT_SIZE 90
FONT_ASCENT 23
FONT_DESCENT 6
RESOLUTION_X 173
RESOLUTION_Y 173
AVERAGE_WIDTH 220
MIN_SPACE 13
NORM_SPACE 17
MAX_SPACE 25
END_SPACE 17
SUPERSCRIPT_X 9
SUPERSCRIPT_Y 9
SUBSCRIPT_X 9
SUBSCRIPT_Y 9
X_HEIGHT 16
AVG_CAPITAL_WIDTH 17
AVG_LOWERCASE_WIDTH 17
CAP_HEIGHT 22
FIGURE_WIDTH 17
SUBSCRIPT_SIZE 13
ENDPROPERTIES
CHARS 289
STARTCHAR space.uni0020
ENCODING 32
SWIDTH 575 0
DWIDTH 17 0
BBX 0 0 0 0
BITMAP
ENDCHAR
STARTCHAR exclam.uni0021
ENCODING 33
SWIDTH 575 0
DWIDTH 17 0
BBX 3 22 7 0
BITMAP
E000
E000
E000
E000
E000
E000
E000
E000
E000
E000
E000
E000
E000
E000
E000
0000
0000
0000
E000
E000
E000
E000
ENDCHAR
STARTCHAR quotedbl.uni0022
ENCODING 34
SWIDTH 575 0
DWIDTH 17 0
BBX 7 8 5 14
BITMAP
C600
C600
C600
C600
C600
C600
C600
C600
ENDCHAR
STARTCHAR numbersign.uni0023
ENCODING 35
SWIDTH 575 0
DWIDTH 17 0
BBX 17 22 0 0
BITMAP
01860000
01860000
038E0000
030C0000
030C0000
030C0000
3FFF8000
3FFF8000
3FFF8000
06180000
0E380000
0C300000
0C300000
FFFE0000
FFFE0000
FFFE0000
18600000
18600000
38E00000
30C00000
30C00000
30C00000
ENDCHAR
STARTCHAR dollar.uni0024
ENCODING 36
SWIDTH 575 0
DWIDTH 17 0
BBX 13 26 2 -4
BITMAP
0200
0200
0200
1FC0
3FF0
7FF0
F230
E200
E200
E200
F200
7E00
1FC0
03F0
0270
0238
0238
0238
C278
FFF0
FFE0
3FC0
0200
0200
0200
0200
ENDCHAR
STARTCHAR percent.uni0025
ENCODING 37
SWIDTH 575 0
DWIDTH 17 0
BBX 17 22 0 0
BITMAP
3E000000
7F000000
E3800000
C1800000
C1800000
C1800000
E3800000
7F038000
3E0E0000
00380000
00E00000
03800000
0E000000
383E0000
E07F0000
00E38000
00C18000
00C18000
00C18000
00E38000
007F0000
003E0000
ENDCHAR
STARTCHAR ampersand.uni0026
ENCODING 38
SWIDTH 575 0
DWIDTH 17 0
BBX 16 22 1 0
BITMAP
07C0
1FE0
3FF0
3C30
3800
3800
3800
3800
1C00
1C00
3E00
7F03
6783
E3C3
E1E3
E0F6
E07E
F03C
783C
7FFE
3FEE
0F87
ENDCHAR
STARTCHAR quotesingle.uni0027
ENCODING 39
SWIDTH 575 0
DWIDTH 17 0
BBX 2 8 7 14
BITMAP
C000
C000
C000
C000
C000
C000
C000
C000
ENDCHAR
STARTCHAR parenleft.uni0028
ENCODING 40
SWIDTH 575 0
DWIDTH 17 0
BBX 6 27 6 -4
BITMAP
0C00
1800
1800
3800
3000
7000
7000
7000
6000
E000
E000
E000
E000
E000
E000
E000
E000
E000
6000
7000
7000
7000
3000
3800
1800
1800
0C00
ENDCHAR
STARTCHAR parenright.uni0029
ENCODING 41
SWIDTH 575 0
DWIDTH 17 0
BBX 6 27 5 -4
BITMAP
C000
6000
6000
7000
3000
3000
3800
3800
1800
1C00
1C00
1C00
1C00
1C00
1C00
1C00
1C00
1C00
1800
3800
3800
3000
3000
7000
6000
6000
C000
ENDCHAR
STARTCHAR asterisk.uni002A
ENCODING 42
SWIDTH 575 0
DWIDTH 17 0
BBX 14 14 2 8
BITMAP
0300
0300
0300
C30C
7338
1FE0
0780
0780
1FE0
7338
C30C
0300
0300
0300
ENDCHAR
STARTCHAR plus.uni002B
ENCODING 43
SWIDTH 575 0
DWIDTH 17 0
BBX 14 14 1 2
BITMAP
0300
0300
0300
0300
0300
0300
FFFC
FFFC
0300
0300
0300
0300
0300
0300
ENDCHAR
STARTCHAR comma.uni002C
ENCODING 44
SWIDTH 575 0
DWIDTH 17 0
BBX 4 9 6 -5
BITMAP
7000
7000
7000
7000
7000
6000
E000
E000
C000
ENDCHAR
STARTCHAR hyphen.uni002D
ENCODING 45
SWIDTH 575 0
DWIDTH 17 0
BBX 7 2 5 7
BITMAP
FE00
FE00
ENDCHAR
STARTCHAR period.uni002E
ENCODING 46
SWIDTH 575 0
DWIDTH 17 0
BBX 3 4 7 0
BITMAP
E000
E000
E000
E000
ENDCHAR
STARTCHAR slash.uni002F
ENCODING 47
SWIDTH 575 0
DWIDTH 17 0
BBX 15 25 1 -3
BITMAP
000E
001C
001C
0038
0038
0070
0070
00E0
00E0
01C0
01C0
0380
0380
0700
0700
0E00
0E00
1C00
1C00
3800
3800
7000
7000
E000
E000
ENDCHAR
STARTCHAR zero.uni0030
ENCODING 48
SWIDTH 575 0
DWIDTH 17 0
BBX 13 22 2 0
BITMAP
0F80
1FC0
3FE0
78F0
7070
7070
E078
E0F8
E1F8
E3F8
E7B8
EF38
FE38
FC38
F838
F038
7070
7070
78F0
3FE0
1FC0
0F80
ENDCHAR
STARTCHAR one.uni0031
ENCODING 49
SWIDTH 575 0
DWIDTH 17 0
BBX 12 22 3 0
BITMAP
0700
3F00
FF00
FF00
C700
0700
0700
0700
0700
0700
0700
0700
0700
0700
0700
0700
0700
0700
0700
7FF0
7FF0
7FF0
ENDCHAR
STARTCHAR two.uni0032
ENCODING 50
SWIDTH 575 0
DWIDTH 17 0
BBX 13 22 2 0
BITMAP
3F80
FFE0
FFF0
C0F0
0078
0038
0038
0038
0078
0070
00F0
01E0
03C0
0780
0F00
1E00
3C00
7800
F000
FFF8
FFF8
FFF8
ENDCHAR
STARTCHAR three.uni0033
ENCODING 51
SWIDTH 575 0
DWIDTH 17 0
BBX 13 22 2 0
BITMAP
1F80
7FE0
7FF0
6078
0038
0038
0038
0038
00F0
0FE0
0F80
0FE0
00F0
0078
0038
0038
0038
0078
C0F0
FFF0
FFE0
3F80
ENDCHAR
STARTCHAR four.uni0034
ENCODING 52
SWIDTH 575 0
DWIDTH 17 0
BBX 14 22 1 0
BITMAP
01E0
01E0
03E0
03E0
06E0
06E0
0CE0
0CE0
18E0
18E0
30E0
30E0
60E0
60E0
FFFC
FFFC
FFFC
00E0
00E0
00E0
00E0
00E0
ENDCHAR
STARTCHAR five.uni0035
ENCODING 53
SWIDTH 575 0
DWIDTH 17 0
BBX 13 22 2 0
BITMAP
7FF0
7FF0
7FF0
7000
7000
7000
7000
7000
7F80
7FE0
7FF0
40F0
0078
0038
0038
0038
0038
0078
C0F0
FFF0
FFE0
7F80
ENDCHAR
STARTCHAR six.uni0036
ENCODING 54
SWIDTH 575 0
DWIDTH 17 0
BBX 13 22 2 0
BITMAP
07C0
1FE0
3FE0
7C20
7800
7000
F000
E000
E7C0
EFE0
FFF0
F8F0
F078
E038
E038
E038
6038
7078
78F0
3FF0
1FE0
0F80
ENDCHAR
STARTCHAR seven.uni0037
ENCODING 55
SWIDTH 575 0
DWIDTH 17 0
BBX 13 22 2 0
BITMAP
FFF8
FFF8
FFF8
0070
0070
00F0
00E0
00E0
01E0
01C0
01C0
03C0
0380
0380
0780
0700
0700
0F00
0E00
0E00
1E00
1C00
ENDCHAR
STARTCHAR eight.uni0038
ENCODING 56
SWIDTH 575 0
DWIDTH 17 0
BBX 13 22 2 0
BITMAP
0F80
3FE0
7FF0
F078
E038
E038
E038
E038
7070
3FE0
0F80
3FE0
78F0
E038
E038
E038
E038
E038
F078
7FF0
3FE0
0F80
ENDCHAR
STARTCHAR nine.uni0039
ENCODING 57
SWIDTH 575 0
DWIDTH 17 0
BBX 13 22 2 0
BITMAP
0F80
3FC0
7FE0
78F0
F070
E030
E038
E038
E038
F078
70F8
7FF8
3FB8
1F38
0038
0078
0070
00F0
21F0
3FE0
3FC0
1F00
ENDCHAR
STARTCHAR colon.uni003A
ENCODING 58
SWIDTH 575 0
DWIDTH 17 0
BBX 3 16 7 0
BITMAP
E000
E000
E000
E000
0000
0000
0000
0000
0000
0000
0000
0000
E000
E000
E000
E000
ENDCHAR
STARTCHAR semicolon.uni003B
ENCODING 59
SWIDTH 575 0
DWIDTH 17 0
BBX 4 21 6 -5
BITMAP
7000
7000
7000
7000
0000
0000
0000
0000
0000
0000
0000
0000
7000
7000
7000
7000
7000
6000
E000
E000
C000
ENDCHAR
STARTCHAR less.uni003C
ENCODING 60
SWIDTH 575 0
DWIDTH 17 0
BBX 14 15 1 2
BITMAP
000C
003C
00F8
03E0
0F80
3E00
F800
E000
F800
3E00
0F80
03E0
00F8
003C
000C
ENDCHAR
STARTCHAR equal.uni003D
ENCODING 61
SWIDTH 575 0
DWIDTH 17 0
BBX 14 7 1 6
BITMAP
FFFC
FFFC
0000
0000
0000
FFFC
FFFC
ENDCHAR
STARTCHAR greater.uni003E
ENCODING 62
SWIDTH 575 0
DWIDTH 17 0
BBX 14 15 1 2
BITMAP
C000
F000
7C00
1F00
07C0
01F0
007C
001C
007C
01F0
07C0
1F00
7C00
F000
C000
ENDCHAR
STARTCHAR question.uni003F
ENCODING 63
SWIDTH 575 0
DWIDTH 17 0
BBX 11 22 4 0
BITMAP
1F00
7FC0
FFC0
E1E0
80E0
00E0
01E0
01C0
03C0
0780
0F00
1E00
1C00
1C00
1C00
1C00
0000
0000
1C00
1C00
1C00
1C00
ENDCHAR
STARTCHAR at.uni0040
ENCODING 64
SWIDTH 575 0
DWIDTH 17 0
BBX 16 25 1 -5
BITMAP
01F0
07FC
1E0E
1806
3007
7003
60FB
61FF
C38F
C307
C603
C603
C603
C603
C603
C307
C38F
61FF
60FB
7000
3800
1C00
0E04
07FC
01FC
ENDCHAR
STARTCHAR A.uni0041
ENCODING 65
SWIDTH 575 0
DWIDTH 17 0
BBX 16 22 1 0
BITMAP
03C0
03C0
03C0
07E0
07E0
07E0
0E70
0E70
0E70
0E70
1C38
1C38
1C38
3C3C
3FFC
3FFC
3FFC
700E
700E
700E
F00F
E007
ENDCHAR
STARTCHAR B.uni0042
ENCODING 66
SWIDTH 575 0
DWIDTH 17 0
BBX 13 22 2 0
BITMAP
FF00
FFC0
FFE0
E0E0
E070
E070
E070
E070
E0E0
FFE0
FF80
FFE0
E0F0
E078
E038
E038
E038
E038
E078
FFF0
FFE0
FF80
ENDCHAR
STARTCHAR C.uni0043
ENCODING 67
SWIDTH 575 0
DWIDTH 17 0
BBX 13 22 2 0
BITMAP
07E0
0FF0
1FF8
3C18
7808
7000
7000
E000
E000
E000
E000
E000
E000
E000
E000
7000
7000
7808
3C18
3FF8
0FF0
07E0
ENDCHAR
STARTCHAR D.uni0044
ENCODING 68
SWIDTH 575 0
DWIDTH 17 0
BBX 13 22 2 0
BITMAP
FF00
FFC0
FFE0
E1E0
E070
E070
E038
E038
E038
E038
E038
E038
E038
E038
E038
E078
E070
E070
E1E0
FFE0
FFC0
FF00
ENDCHAR
STARTCHAR E.uni0045
ENCODING 69
SWIDTH 575 0
DWIDTH 17 0
BBX 12 22 3 0
BITMAP
FFF0
FFF0
FFF0
E000
E000
E000
E000
E000
E000
FFE0
FFE0
FFE0
E000
E000
E000
E000
E000
E000
E000
FFF0
FFF0
FFF0
ENDCHAR
STARTCHAR F.uni0046
ENCODING 70
SWIDTH 575 0
DWIDTH 17 0
BBX 12 22 3 0
BITMAP
FFF0
FFF0
FFF0
E000
E000
E000
E000
E000
E000
FFE0
FFE0
FFE0
E000
E000
E000
E000
E000
E000
E000
E000
E000
E000
ENDCHAR
STARTCHAR G.uni0047
ENCODING 71
SWIDTH 575 0
DWIDTH 17 0
BBX 14 22 2 0
BITMAP
07E0
0FF0
3FF8
3C18
7808
7000
7000
E000
E000
E000
E0FC
E0FC
E0FC
E01C
E01C
701C
701C
781C
3C3C
3FFC
0FF8
07E0
ENDCHAR
STARTCHAR H.uni0048
ENCODING 72
SWIDTH 575 0
DWIDTH 17 0
BBX 13 22 2 0
BITMAP
E038
E038
E038
E038
E038
E038
E038
E038
E038
FFF8
FFF8
FFF8
E038
E038
E038
E038
E038
E038
E038
E038
E038
E038
ENDCHAR
STARTCHAR I.uni0049
ENCODING 73
SWIDTH 575 0
DWIDTH 17 0
BBX 11 22 3 0
BITMAP
FFE0
FFE0
FFE0
0E00
0E00
0E00
0E00
0E00
0E00
0E00
0E00
0E00
0E00
0E00
0E00
0E00
0E00
0E00
0E00
FFE0
FFE0
FFE0
ENDCHAR
STARTCHAR J.uni004A
ENCODING 74
SWIDTH 575 0
DWIDTH 17 0
BBX 12 22 2 0
BITMAP
0FF0
0FF0
0FF0
0070
0070
0070
0070
0070
0070
0070
0070
0070
0070
0070
0070
0070
0070
80F0
E0E0
FFE0
7FC0
1F80
ENDCHAR
STARTCHAR K.uni004B
ENCODING 75
SWIDTH 575 0
DWIDTH 17 0
BBX 15 22 2 0
BITMAP
E00C
E01C
E038
E070
E0E0
E1C0
E380
E700
EE00
FE00
FF00
F780
E380
E3C0
E1C0
E0E0
E0F0
E070
E078
E03C
E01C
E01E
ENDCHAR
STARTCHAR L.uni004C
ENCODING 76
SWIDTH 575 0
DWIDTH 17 0
BBX 13 22 3 0
BITMAP
E000
E000
E000
E000
E000
E000
E000
E000
E000
E000
E000
E000
E000
E000
E000
E000
E000
E000
E000
FFF8
FFF8
FFF8
ENDCHAR
STARTCHAR M.uni004D
ENCODING 77
SWIDTH 575 0
DWIDTH 17 0
BBX 14 22 1 0
BITMAP
E01C
F03C
F03C
F03C
F87C
F87C
F87C
F87C
ECDC
ECDC
ECDC
ECDC
E79C
E79C
E79C
E31C
E31C
E31C
E01C
E01C
E01C
E01C
ENDCHAR
STARTCHAR N.uni004E
ENCODING 78
SWIDTH 575 0
DWIDTH 17 0
BBX 13 22 2 0
BITMAP
F038
F038
F838
F838
F838
FC38
EC38
EC38
E638
E638
E638
E338
E338
E338
E1B8
E1B8
E1F8
E0F8
E0F8
E0F8
E078
E078
ENDCHAR
STARTCHAR O.uni004F
ENCODING 79
SWIDTH 575 0
DWIDTH 17 0
BBX 14 22 2 0
BITMAP
0FC0
1FE0
3FF0
7878
7038
7038
E01C
E01C
E01C
E01C
E01C
E01C
E01C
E01C
E01C
E01C
7038
7038
7878
3FF0
1FE0
0FC0
ENDCHAR
STARTCHAR P.uni0050
ENCODING 80
SWIDTH 575 0
DWIDTH 17 0
BBX 13 22 3 0
BITMAP
FF80
FFE0
FFF0
E0F0
E078
E038
E038
E038
E078
E0F0
FFF0
FFE0
FF80
E000
E000
E000
E000
E000
E000
E000
E000
E000
ENDCHAR
STARTCHAR Q.uni0051
ENCODING 81
SWIDTH 575 0
DWIDTH 17 0
BBX 14 26 2 -4
BITMAP
0FC0
1FE0
3FF0
7878
7038
7038
E01C
E01C
E01C
E01C
E01C
E01C
E01C
E01C
E01C
E01C
7038
7038
7878
3FF0
1FE0
0FC0
00E0
0070
0038
0010
ENDCHAR
STARTCHAR R.uni0052
ENCODING 82
SWIDTH 575 0
DWIDTH 17 0
BBX 15 22 2 0
BITMAP
FF80
FFE0
FFF0
E0F0
E078
E038
E038
E038
E030
E0F0
FFE0
FF80
FFC0
E1E0
E0F0
E070
E078
E038
E038
E01C
E01C
E00E
ENDCHAR
STARTCHAR S.uni0053
ENCODING 83
SWIDTH 575 0
DWIDTH 17 0
BBX 13 22 2 0
BITMAP
0FC0
3FF0
7FF0
7810
F000
E000
E000
E000
F000
7E00
3FC0
0FE0
01F0
0078
0038
0038
0038
8078
C0F8
FFF0
FFE0
3F80
ENDCHAR
STARTCHAR T.uni0054
ENCODING 84
SWIDTH 575 0
DWIDTH 17 0
BBX 15 22 1 0
BITMAP
FFFE
FFFE
FFFE
0380
0380
0380
0380
0380
0380
0380
0380
0380
0380
0380
0380
0380
0380
0380
0380
0380
0380
0380
ENDCHAR
STARTCHAR U.uni0055
ENCODING 85
SWIDTH 575 0
DWIDTH 17 0
BBX 13 22 2 0
BITMAP
E038
E038
E038
E038
E038
E038
E038
E038
E038
E038
E038
E038
E038
E038
E038
E038
E038
E038
7070
7FF0
3FE0
0F80
ENDCHAR
STARTCHAR V.uni0056
ENCODING 86
SWIDTH 575 0
DWIDTH 17 0
BBX 15 22 1 0
BITMAP
E00E
E00E
701C
701C
701C
701C
3838
3838
3838
1830
1C70
1C70
1C70
0C60
0EE0
0EE0
0EE0
07C0
07C0
07C0
07C0
0380
ENDCHAR
STARTCHAR W.uni0057
ENCODING 87
SWIDTH 575 0
DWIDTH 17 0
BBX 17 22 0 0
BITMAP
E0038000
E0038000
E0038000
E0038000
70070000
70070000
71C70000
71C70000
71C70000
73670000
73670000
3B6E0000
3B6E0000
3B6E0000
3A2E0000
3E3E0000
3E3E0000
3E3E0000
1C1C0000
1C1C0000
1C1C0000
1C1C0000
ENDCHAR
STARTCHAR X.uni0058
ENCODING 88
SWIDTH 575 0
DWIDTH 17 0
BBX 16 22 1 0
BITMAP
F00F
700E
381C
381C
1C38
1C38
0E70
0660
07E0
03C0
03C0
03C0
07E0
07E0
0E70
0E70
1C38
1C38
381C
781E
700E
F00F
ENDCHAR
STARTCHAR Y.uni0059
ENCODING 89
SWIDTH 575 0
DWIDTH 17 0
BBX 17 22 0 0
BITMAP
F0078000
70070000
780F0000
380E0000
1C1C0000
1E3C0000
0E380000
0F780000
07700000
03E00000
03E00000
01C00000
01C00000
01C00000
01C00000
01C00000
01C00000
01C00000
01C00000
01C00000
01C00000
01C00000
ENDCHAR
STARTCHAR Z.uni005A
ENCODING 90
SWIDTH 575 0
DWIDTH 17 0
BBX 14 22 2 0
BITMAP
FFFC
FFFC
FFFC
0038
0078
0070
00E0
01E0
01C0
03C0
0380
0780
0F00
0E00
1E00
1C00
3C00
7800
7000
FFFC
FFFC
FFFC
ENDCHAR
STARTCHAR bracketleft.uni005B
ENCODING 91
SWIDTH 575 0
DWIDTH 17 0
BBX 6 27 6 -4
BITMAP
FC00
FC00
FC00
E000
E000
E000
E000
E000
E000
E000
E000
E000
E000
E000
E000
E000
E000
E000
E000
E000
E000
E000
E000
E000
FC00
FC00
FC00
ENDCHAR
STARTCHAR backslash.uni005C
ENCODING 92
SWIDTH 575 0
DWIDTH 17 0
BBX 15 25 1 -3
BITMAP
E000
7000
7000
3800
3800
1C00
1C00
0E00
0E00
0700
0700
0380
0380
01C0
01C0
00E0
00E0
0070
0070
0038
0038
001C
001C
000E
000E
ENDCHAR
STARTCHAR bracketright.uni005D
ENCODING 93
SWIDTH 575 0
DWIDTH 17 0
BBX 6 27 5 -4
BITMAP
FC00
FC00
FC00
1C00
1C00
1C00
1C00
1C00
1C00
1C00
1C00
1C00
1C00
1C00
1C00
1C00
1C00
1C00
1C00
1C00
1C00
1C00
1C00
1C00
FC00
FC00
FC00
ENDCHAR
STARTCHAR asciicircum.uni005E
ENCODING 94
SWIDTH 575 0
DWIDTH 17 0
BBX 13 5 2 18
BITMAP
0700
1FC0
3DE0
F078
E038
ENDCHAR
STARTCHAR underscore.uni005F
ENCODING 95
SWIDTH 575 0
DWIDTH 17 0
BBX 17 3 0 -5
BITMAP
FFFF8000
FFFF8000
FFFF8000
ENDCHAR
STARTCHAR grave.uni0060
ENCODING 96
SWIDTH 575 0
DWIDTH 17 0
BBX 6 6 4 18
BITMAP
F000
7000
3800
1800
0C00
0400
ENDCHAR
STARTCHAR a.uni0061
ENCODING 97
SWIDTH 575 0
DWIDTH 17 0
BBX 13 16 2 0
BITMAP
0F80
3FE0
7FF0
7070
4038
0038
0FF8
3FF8
7FF8
F038
E038
E078
F0F8
FFF8
7FB8
1E38
ENDCHAR
STARTCHAR b.uni0062
ENCODING 98
SWIDTH 575 0
DWIDTH 17 0
BBX 13 23 3 0
BITMAP
E000
E000
E000
E000
E000
E000
E000
E780
EFE0
FFF0
F8F0
F078
E038
E038
E038
E038
E038
E038
F078
F8F0
FFF0
EFE0
E780
ENDCHAR
STARTCHAR c.uni0063
ENCODING 99
SWIDTH 575 0
DWIDTH 17 0
BBX 12 16 3 0
BITMAP
0780
1FE0
3FF0
7830
7010
E000
E000
E000
E000
E000
E000
7010
7830
3FF0
1FE0
0780
ENDCHAR
STARTCHAR d.uni0064
ENCODING 100
SWIDTH 575 0
DWIDTH 17 0
BBX 13 23 2 0
BITMAP
0038
0038
0038
0038
0038
0038
0038
0F38
3FB8
7FF8
78F8
F078
E038
E038
E038
E038
E038
E038
F078
78F8
7FF8
3FB8
0F38
ENDCHAR
STARTCHAR e.uni0065
ENCODING 101
SWIDTH 575 0
DWIDTH 17 0
BBX 14 16 2 0
BITMAP
07C0
1FF0
3FF8
7838
701C
E01C
FFFC
FFFC
FFFC
E000
E000
7008
7838
3FF8
1FF0
07C0
ENDCHAR
STARTCHAR f.uni0066
ENCODING 102
SWIDTH 575 0
DWIDTH 17 0
BBX 12 23 3 0
BITMAP
01F0
07F0
07F0
0F00
0E00
0E00
0E00
FFF0
FFF0
FFF0
0E00
0E00
0E00
0E00
0E00
0E00
0E00
0E00
0E00
0E00
7FE0
7FE0
7FE0
ENDCHAR
STARTCHAR g.uni0067
ENCODING 103
SWIDTH 575 0
DWIDTH 17 0
BBX 13 22 2 -6
BITMAP
0F38
3FB8
7FF8
78F8
F078
E038
E038
E038
E038
E038
E038
F078
78F8
7FF8
3FB8
0F38
0038
0078
20F0
3FF0
3FE0
1F80
ENDCHAR
STARTCHAR h.uni0068
ENCODING 104
SWIDTH 575 0
DWIDTH 17 0
BBX 12 23 3 0
BITMAP
E000
E000
E000
E000
E000
E000
E000
E7C0
EFE0
FFE0
F8F0
F070
E070
E070
E070
E070
E070
E070
E070
E070
E070
E070
E070
ENDCHAR
STARTCHAR i.uni0069
ENCODING 105
SWIDTH 575 0
DWIDTH 17 0
BBX 13 23 2 0
BITMAP
0700
0700
0700
0000
0000
0000
0000
7F00
7F00
7F00
0700
0700
0700
0700
0700
0700
0700
0700
0700
0700
FFF8
FFF8
FFF8
ENDCHAR
STARTCHAR j.uni006A
ENCODING 106
SWIDTH 575 0
DWIDTH 17 0
BBX 9 29 2 -6
BITMAP
0380
0380
0380
0000
0000
0000
0000
3F80
3F80
3F80
0380
0380
0380
0380
0380
0380
0380
0380
0380
0380
0380
0380
0380
0380
0380
0780
FF00
FF00
FC00
ENDCHAR
STARTCHAR k.uni006B
ENCODING 107
SWIDTH 575 0
DWIDTH 17 0
BBX 14 23 3 0
BITMAP
E000
E000
E000
E000
E000
E000
E000
E078
E0F0
E1E0
E3C0
E780
EF00
FE00
FF00
FF80
F380
E3C0
E1E0
E0E0
E0F0
E078
E03C
ENDCHAR
STARTCHAR l.uni006C
ENCODING 108
SWIDTH 575 0
DWIDTH 17 0
BBX 13 23 1 0
BITMAP
FF00
FF00
FF00
0700
0700
0700
0700
0700
0700
0700
0700
0700
0700
0700
0700
0700
0700
0700
0700
0780
03F8
03F8
00F8
ENDCHAR
STARTCHAR m.uni006D
ENCODING 109
SWIDTH 575 0
DWIDTH 17 0
BBX 15 16 1 0
BITMAP
EE38
FF7C
FFFE
F3CE
E38E
E38E
E38E
E38E
E38E
E38E
E38E
E38E
E38E
E38E
E38E
E38E
ENDCHAR
STARTCHAR n.uni006E
ENCODING 110
SWIDTH 575 0
DWIDTH 17 0
BBX 12 16 3 0
BITMAP
E7C0
EFE0
FFE0
F8F0
F070
E070
E070
E070
E070
E070
E070
E070
E070
E070
E070
E070
ENDCHAR
STARTCHAR o.uni006F
ENCODING 111
SWIDTH 575 0
DWIDTH 17 0
BBX 13 16 2 0
BITMAP
0F80
3FE0
7FF0
78F0
F078
E038
E038
E038
E038
E038
E038
F078
78F0
7FF0
3FE0
0F80
ENDCHAR
STARTCHAR p.uni0070
ENCODING 112
SWIDTH 575 0
DWIDTH 17 0
BBX 13 22 3 -6
BITMAP
E780
EFE0
FFF0
F8F0
F078
E038
E038
E038
E038
E038
E038
F078
F8F0
FFF0
EFE0
E7C0
E000
E000
E000
E000
E000
E000
ENDCHAR
STARTCHAR q.uni0071
ENCODING 113
SWIDTH 575 0
DWIDTH 17 0
BBX 13 22 2 -6
BITMAP
0F38
3FB8
7FF8
78F8
F078
E038
E038
E038
E038
E038
E038
F078
78F8
7FF8
3FB8
0F38
0038
0038
0038
0038
0038
0038
ENDCHAR
STARTCHAR r.uni0072
ENCODING 114
SWIDTH 575 0
DWIDTH 17 0
BBX 14 16 2 0
BITMAP
FC78
FDFC
FDFC
1F84
1E00
1E00
1C00
1C00
1C00
1C00
1C00
1C00
1C00
FFF0
FFF0
FFF0
ENDCHAR
STARTCHAR s.uni0073
ENCODING 115
SWIDTH 575 0
DWIDTH 17 0
BBX 11 16 3 0
BITMAP
1F80
7FC0
FFC0
E040
E000
F800
7F00
3F80
0FC0
01E0
00E0
80E0
E1E0
FFC0
7FC0
1F00
ENDCHAR
STARTCHAR t.uni0074
ENCODING 116
SWIDTH 575 0
DWIDTH 17 0
BBX 13 21 2 0
BITMAP
0E00
0E00
0E00
0E00
0E00
FFF8
FFF8
FFF8
0E00
0E00
0E00
0E00
0E00
0E00
0E00
0E00
0E00
0F00
07F8
07F8
01F8
ENDCHAR
STARTCHAR u.uni0075
ENCODING 117
SWIDTH 575 0
DWIDTH 17 0
BBX 12 16 3 0
BITMAP
E070
E070
E070
E070
E070
E070
E070
E070
E070
E070
E070
E0F0
F1F0
7FF0
7F70
3E70
ENDCHAR
STARTCHAR v.uni0076
ENCODING 118
SWIDTH 575 0
DWIDTH 17 0
BBX 14 16 1 0
BITMAP
E01C
E01C
7038
7038
7038
3870
3870
3870
1CE0
1CE0
0CC0
0FC0
0FC0
0780
0780
0780
ENDCHAR
STARTCHAR w.uni0077
ENCODING 119
SWIDTH 575 0
DWIDTH 17 0
BBX 17 16 0 0
BITMAP
E0038000
E0038000
F0078000
70070000
70070000
71C70000
79CF0000
39CE0000
3B6E0000
3B6E0000
3B6E0000
1E3C0000
1E3C0000
1E3C0000
1C1C0000
0C180000
ENDCHAR
STARTCHAR x.uni0078
ENCODING 120
SWIDTH 575 0
DWIDTH 17 0
BBX 15 16 1 0
BITMAP
783C
3C78
1C70
1EF0
0EE0
07C0
07C0
0380
0380
07C0
0FE0
1EF0
3C78
3838
783C
F01E
ENDCHAR
STARTCHAR y.uni0079
ENCODING 121
SWIDTH 575 0
DWIDTH 17 0
BBX 14 22 1 -6
BITMAP
E01C
7038
7038
7878
3870
3870
3CF0
1CE0
1CE0
0FC0
0FC0
0FC0
0780
0780
0780
0700
0700
0F00
0E00
7E00
7C00
7800
ENDCHAR
STARTCHAR z.uni007A
ENCODING 122
SWIDTH 575 0
DWIDTH 17 0
BBX 11 16 3 0
BITMAP
FFE0
FFE0
FFE0
03C0
03C0
0780
0F00
0F00
1E00
1C00
3C00
7800
7000
FFE0
FFE0
FFE0
ENDCHAR
STARTCHAR braceleft.uni007B
ENCODING 123
SWIDTH 575 0
DWIDTH 17 0
BBX 11 28 3 -5
BITMAP
01E0
07E0
07E0
0F00
0E00
0E00
0E00
0E00
0E00
0E00
0E00
1E00
FC00
F000
FC00
1E00
0E00
0E00
0E00
0E00
0E00
0E00
0E00
0E00
0F00
07E0
07E0
01E0
ENDCHAR
STARTCHAR bar.uni007C
ENCODING 124
SWIDTH 575 0
DWIDTH 17 0
BBX 2 29 7 -6
BITMAP
C000
C000
C000
C000
C000
C000
C000
C000
C000
C000
C000
C000
C000
C000
C000
C000
C000
C000
C000
C000
C000
C000
C000
C000
C000
C000
C000
C000
C000
ENDCHAR
STARTCHAR braceright.uni007D
ENCODING 125
SWIDTH 575 0
DWIDTH 17 0
BBX 11 28 3 -5
BITMAP
F000
FC00
FC00
1E00
0E00
0E00
0E00
0E00
0E00
0E00
0E00
0F00
07E0
01E0
07E0
0F00
0E00
0E00
0E00
0E00
0E00
0E00
0E00
0E00
1E00
FC00
FC00
F000
ENDCHAR
STARTCHAR asciitilde.uni007E
ENCODING 126
SWIDTH 575 0
DWIDTH 17 0
BBX 14 4 1 7
BITMAP
3C04
FF0C
C3FC
80F0
ENDCHAR
STARTCHAR nbsp.uni00A0
ENCODING 160
SWIDTH 575 0
DWIDTH 17 0
BBX 0 0 0 0
BITMAP
ENDCHAR
STARTCHAR exclamdown.uni00A1
ENCODING 161
SWIDTH 575 0
DWIDTH 17 0
BBX 3 22 7 0
BITMAP
E000
E000
E000
E000
0000
0000
0000
E000
E000
E000
E000
E000
E000
E000
E000
E000
E000
E000
E000
E000
E000
E000
ENDCHAR
STARTCHAR cent.uni00A2
ENCODING 162
SWIDTH 575 0
DWIDTH 17 0
BBX 12 25 3 -5
BITMAP
0100
0100
0100
0100
0780
1FE0
3FF0
7830
7010
E000
E000
E000
E000
E000
E000
7010
7830
3FF0
1FE0
0780
0100
0100
0100
0100
0100
ENDCHAR
STARTCHAR sterling.uni00A3
ENCODING 163
SWIDTH 575 0
DWIDTH 17 0
BBX 13 22 2 0
BITMAP
03F0
0FF8
0FF8
1E08
1C00
1C00
1C00
1C00
1C00
1C00
FFE0
FFE0
FFE0
1C00
1C00
1C00
1C00
1C00
1C00
FFF8
FFF8
FFF8
ENDCHAR
STARTCHAR currency.uni00A4
ENCODING 164
SWIDTH 575 0
DWIDTH 17 0
BBX 13 13 2 3
BITMAP
4010
E038
7770
3FE0
18C0
3060
3060
3060
18C0
3FE0
7770
E038
4010
ENDCHAR
STARTCHAR yen.uni00A5
ENCODING 165
SWIDTH 575 0
DWIDTH 17 0
BBX 17 22 0 0
BITMAP
F0078000
70070000
780F0000
380E0000
1C1C0000
1E3C0000
0E380000
07700000
3F7E0000
3FFE0000
03E00000
01C00000
01C00000
3FFE0000
3FFE0000
01C00000
01C00000
01C00000
01C00000
01C00000
01C00000
01C00000
ENDCHAR
STARTCHAR brokenbar.uni00A6
ENCODING 166
SWIDTH 575 0
DWIDTH 17 0
BBX 2 26 7 -5
BITMAP
C000
C000
C000
C000
C000
C000
C000
C000
C000
C000
C000
0000
0000
0000
0000
C000
C000
C000
C000
C000
C000
C000
C000
C000
C000
C000
ENDCHAR
STARTCHAR section.uni00A7
ENCODING 167
SWIDTH 575 0
DWIDTH 17 0
BBX 11 25 3 -3
BITMAP
0F80
3FC0
38C0
7040
7000
7000
3800
1C00
3F00
7780
E3C0
E1E0
E0E0
F0E0
78E0
3DC0
0F00
0380
0380
01C0
01C0
41C0
6380
7F80
3E00
ENDCHAR
STARTCHAR dieresis.uni00A8
ENCODING 168
SWIDTH 575 0
DWIDTH 17 0
BBX 9 3 4 20
BITMAP
E380
E380
E380
ENDCHAR
STARTCHAR copyright.uni00A9
ENCODING 169
SWIDTH 575 0
DWIDTH 17 0
BBX 17 18 0 2
BITMAP
03E00000
0FF80000
3C1E0000
30060000
61E30000
67F30000
C6118000
CC018000
CC018000
CC018000
CC018000
C6118000
67F30000
61E30000
30060000
3C1E0000
0FF80000
03E00000
ENDCHAR
STARTCHAR ordfeminine.uni00AA
ENCODING 170
SWIDTH 575 0
DWIDTH 17 0
BBX 10 16 3 6
BITMAP
3F00
7F80
41C0
00C0
3FC0
7FC0
E0C0
C0C0
C1C0
E3C0
7EC0
3CC0
0000
0000
FFC0
FFC0
ENDCHAR
STARTCHAR guillemotleft.uni00AB
ENCODING 171
SWIDTH 575 0
DWIDTH 17 0
BBX 12 13 2 3
BITMAP
0410
0C30
1C70
38E0
71C0
E380
C300
E380
71C0
38E0
1C70
0C30
0410
ENDCHAR
STARTCHAR logicalnot.uni00AC
ENCODING 172
SWIDTH 575 0
DWIDTH 17 0
BBX 14 7 1 6
BITMAP
FFFC
FFFC
000C
000C
000C
000C
000C
ENDCHAR
STARTCHAR hyphensoft.uni00AD
ENCODING 173
SWIDTH 575 0
DWIDTH 17 0
BBX 7 2 5 7
BITMAP
FE00
FE00
ENDCHAR
STARTCHAR registered.uni00AE
ENCODING 174
SWIDTH 575 0
DWIDTH 17 0
BBX 17 18 0 2
BITMAP
03E00000
0FF80000
3C1E0000
30060000
67F30000
67FB0000
C6198000
C6198000
C7F18000
C7C18000
C6718000
C6318000
663B0000
661F0000
30060000
3C1E0000
0FF80000
03E00000
ENDCHAR
STARTCHAR macron.uni00AF
ENCODING 175
SWIDTH 575 0
DWIDTH 17 0
BBX 11 2 3 20
BITMAP
FFE0
FFE0
ENDCHAR
STARTCHAR degree.uni00B0
ENCODING 176
SWIDTH 575 0
DWIDTH 17 0
BBX 9 9 4 13
BITMAP
1C00
7F00
6300
C180
C180
C180
6300
7F00
1C00
ENDCHAR
STARTCHAR plusminus.uni00B1
ENCODING 177
SWIDTH 575 0
DWIDTH 17 0
BBX 14 17 1 0
BITMAP
0300
0300
0300
0300
0300
FFFC
FFFC
0300
0300
0300
0300
0300
0000
0000
0000
FFFC
FFFC
ENDCHAR
STARTCHAR twosuperior.uni00B2
ENCODING 178
SWIDTH 575 0
DWIDTH 17 0
BBX 8 12 4 10
BITMAP
7C00
FE00
8700
0300
0300
0700
0E00
1C00
3800
7000
FF00
FF00
ENDCHAR
STARTCHAR threesuperior.uni00B3
ENCODING 179
SWIDTH 575 0
DWIDTH 17 0
BBX 8 12 4 10
BITMAP
7C00
FE00
8300
0300
0200
3E00
3F00
0300
0300
8700
FE00
7C00
ENDCHAR
STARTCHAR acute.uni00B4
ENCODING 180
SWIDTH 575 0
DWIDTH 17 0
BBX 6 6 8 18
BITMAP
3C00
3800
7000
6000
C000
8000
ENDCHAR
STARTCHAR micro.uni00B5
ENCODING 181
SWIDTH 575 0
DWIDTH 17 0
BBX 14 22 3 -6
BITMAP
E070
E070
E070
E070
E070
E070
E070
E070
E070
E070
E070
E0F0
F0F0
FFFC
FFBC
EF1C
E000
E000
E000
E000
E000
E000
ENDCHAR
STARTCHAR paragraph.uni00B6
ENCODING 182
SWIDTH 575 0
DWIDTH 17 0
BBX 14 25 1 -3
BITMAP
0FFC
3FFC
7F8C
7F8C
FF8C
FF8C
FF8C
FF8C
7F8C
7F8C
3F8C
0F8C
018C
018C
018C
018C
018C
018C
018C
018C
018C
018C
018C
018C
018C
ENDCHAR
STARTCHAR periodcentered.uni00B7
ENCODING 183
SWIDTH 575 0
DWIDTH 17 0
BBX 3 5 8 8
BITMAP
E000
E000
E000
E000
E000
ENDCHAR
STARTCHAR cedilla.uni00B8
ENCODING 184
SWIDTH 575 0
DWIDTH 17 0
BBX 6 6 5 -6
BITMAP
1800
0C00
0C00
0C00
FC00
F800
ENDCHAR
STARTCHAR onesuperior.uni00B9
ENCODING 185
SWIDTH 575 0
DWIDTH 17 0
BBX 8 12 5 10
BITMAP
3800
F800
D800
1800
1800
1800
1800
1800
1800
1800
FF00
FF00
ENDCHAR
STARTCHAR ordmasculine.uni00BA
ENCODING 186
SWIDTH 575 0
DWIDTH 17 0
BBX 10 16 3 6
BITMAP
1E00
7F80
6180
E1C0
C0C0
C0C0
C0C0
C0C0
E1C0
6180
7F80
1E00
0000
0000
FFC0
FFC0
ENDCHAR
STARTCHAR guillemotright.uni00BB
ENCODING 187
SWIDTH 575 0
DWIDTH 17 0
BBX 13 13 3 3
BITMAP
8200
C300
E380
71C0
38E0
1C70
0E38
1C70
38E0
71C0
E380
C300
8200
ENDCHAR
STARTCHAR onequarter.uni00BC
ENCODING 188
SWIDTH 575 0
DWIDTH 17 0
BBX 16 28 0 -4
BITMAP
1C00
7C00
6C00
0C00
0C00
0C00
0C00
0C00
0C00
0C00
7F80
7F86
007E
07F8
3FC0
FC00
C01C
001C
002C
002C
004C
008C
008C
01FF
01FF
000C
000C
000C
ENDCHAR
STARTCHAR onehalf.uni00BD
ENCODING 189
SWIDTH 575 0
DWIDTH 17 0
BBX 15 28 0 -4
BITMAP
1C00
7C00
6C00
0C00
0C00
0C00
0C00
0C00
0C00
0C00
7F80
7F86
007E
07F8
3FC0
FC00
C0F8
01FC
010E
0006
0006
000E
001C
0038
0070
00E0
01FE
01FE
ENDCHAR
STARTCHAR threequarters.uni00BE
ENCODING 190
SWIDTH 575 0
DWIDTH 17 0
BBX 16 28 0 -4
BITMAP
3E00
7F00
4180
0180
0100
1F00
1F80
0180
0180
4380
7F00
3E06
007E
07F8
3FC0
FC00
C01C
001C
002C
002C
004C
008C
008C
01FF
01FF
000C
000C
000C
ENDCHAR
STARTCHAR questiondown.uni00BF
ENCODING 191
SWIDTH 575 0
DWIDTH 17 0
BBX 11 22 2 0
BITMAP
0700
0700
0700
0700
0000
0000
0700
0700
0700
0700
0F00
1E00
3C00
7C00
7000
F000
E000
E020
F0E0
7FE0
7FC0
1F00
ENDCHAR
STARTCHAR Agrave.uni00C0
ENCODING 192
SWIDTH 575 0
DWIDTH 17 0
BBX 16 28 1 0
BITMAP
0F00
0700
0380
0180
00C0
0000
03C0
03C0
03C0
07E0
07E0
07E0
0E70
0E70
0E70
0E70
1C38
1C38
1C38
3C3C
3FFC
3FFC
3FFC
700E
700E
700E
F00F
E007
ENDCHAR
STARTCHAR Aacute.uni00C1
ENCODING 193
SWIDTH 575 0
DWIDTH 17 0
BBX 16 28 1 0
BITMAP
00F0
00E0
01C0
0180
0300
0000
03C0
03C0
03C0
07E0
07E0
07E0
0E70
0E70
0E70
0E70
1C38
1C38
1C38
3C3C
3FFC
3FFC
3FFC
700E
700E
700E
F00F
E007
ENDCHAR
STARTCHAR Acircumflex.uni00C2
ENCODING 194
SWIDTH 575 0
DWIDTH 17 0
BBX 16 27 1 0
BITMAP
0180
03C0
0660
0C30
0000
03C0
03C0
03C0
07E0
07E0
07E0
0E70
0E70
0E70
0E70
1C38
1C38
1C38
3C3C
3FFC
3FFC
3FFC
700E
700E
700E
F00F
E007
ENDCHAR
STARTCHAR Atilde.uni00C3
ENCODING 195
SWIDTH 575 0
DWIDTH 17 0
BBX 16 27 1 0
BITMAP
0F30
1FF0
19E0
0000
0000
03C0
03C0
03C0
07E0
07E0
07E0
0E70
0E70
0E70
0E70
1C38
1C38
1C38
3C3C
3FFC
3FFC
3FFC
700E
700E
700E
F00F
E007
ENDCHAR
STARTCHAR Adieresis.uni00C4
ENCODING 196
SWIDTH 575 0
DWIDTH 17 0
BBX 16 27 1 0
BITMAP
1C70
1C70
1C70
0000
0000
03C0
03C0
03C0
07E0
07E0
07E0
0E70
0E70
0E70
0E70
1C38
1C38
1C38
3C3C
3FFC
3FFC
3FFC
700E
700E
700E
F00F
E007
ENDCHAR
STARTCHAR Aring.uni00C5
ENCODING 197
SWIDTH 575 0
DWIDTH 17 0
BBX 16 28 1 0
BITMAP
03C0
0660
0420
0420
0660
03C0
0000
03C0
03C0
07E0
07E0
07E0
0E70
0E70
0E70
0E70
1C38
1C38
1C38
3C3C
3FFC
3FFC
3FFC
700E
700E
700E
F00F
E007
ENDCHAR
STARTCHAR AE.uni00C6
ENCODING 198
SWIDTH 575 0
DWIDTH 17 0
BBX 16 22 0 0
BITMAP
07FF
07FF
07FF
0670
0E70
0E70
0E70
0E70
1C70
1C7E
1C7E
1C7E
3870
3870
3FF0
3FF0
7FF0
7070
7070
707F
E07F
E07F
ENDCHAR
STARTCHAR Ccedilla.uni00C7
ENCODING 199
SWIDTH 575 0
DWIDTH 17 0
BBX 13 28 2 -6
BITMAP
07E0
0FF0
1FF8
3C18
7808
7000
7000
E000
E000
E000
E000
E000
E000
E000
E000
7000
7000
7808
3C18
3FF8
0FF0
07E0
0180
00C0
00C0
00C0
0FC0
0F80
ENDCHAR
STARTCHAR Egrave.uni00C8
ENCODING 200
SWIDTH 575 0
DWIDTH 17 0
BBX 12 28 3 0
BITMAP
3C00
1C00
0E00
0600
0300
0000
FFF0
FFF0
FFF0
E000
E000
E000
E000
E000
E000
FFE0
FFE0
FFE0
E000
E000
E000
E000
E000
E000
E000
FFF0
FFF0
FFF0
ENDCHAR
STARTCHAR Eacute.uni00C9
ENCODING 201
SWIDTH 575 0
DWIDTH 17 0
BBX 12 28 3 0
BITMAP
03C0
0380
0700
0600
0C00
0000
FFF0
FFF0
FFF0
E000
E000
E000
E000
E000
E000
FFE0
FFE0
FFE0
E000
E000
E000
E000
E000
E000
E000
FFF0
FFF0
FFF0
ENDCHAR
STARTCHAR Ecircumflex.uni00CA
ENCODING 202
SWIDTH 575 0
DWIDTH 17 0
BBX 12 27 3 0
BITMAP
0600
0F00
1980
30C0
0000
FFF0
FFF0
FFF0
E000
E000
E000
E000
E000
E000
FFE0
FFE0
FFE0
E000
E000
E000
E000
E000
E000
E000
FFF0
FFF0
FFF0
ENDCHAR
STARTCHAR Edieresis.uni00CB
ENCODING 203
SWIDTH 575 0
DWIDTH 17 0
BBX 12 27 3 0
BITMAP
39C0
39C0
39C0
0000
0000
FFF0
FFF0
FFF0
E000
E000
E000
E000
E000
E000
FFE0
FFE0
FFE0
E000
E000
E000
E000
E000
E000
E000
FFF0
FFF0
FFF0
ENDCHAR
STARTCHAR Igrave.uni00CC
ENCODING 204
SWIDTH 575 0
DWIDTH 17 0
BBX 11 28 3 0
BITMAP
7800
3800
1C00
0C00
0600
0000
FFE0
FFE0
FFE0
0E00
0E00
0E00
0E00
0E00
0E00
0E00
0E00
0E00
0E00
0E00
0E00
0E00
0E00
0E00
0E00
FFE0
FFE0
FFE0
ENDCHAR
STARTCHAR Iacute.uni00CD
ENCODING 205
SWIDTH 575 0
DWIDTH 17 0
BBX 11 28 3 0
BITMAP
03C0
0380
0700
0600
0C00
0000
FFE0
FFE0
FFE0
0E00
0E00
0E00
0E00
0E00
0E00
0E00
0E00
0E00
0E00
0E00
0E00
0E00
0E00
0E00
0E00
FFE0
FFE0
FFE0
ENDCHAR
STARTCHAR Icircumflex.uni00CE
ENCODING 206
SWIDTH 575 0
DWIDTH 17 0
BBX 11 27 3 0
BITMAP
0C00
1E00
3300
6180
0000
FFE0
FFE0
FFE0
0E00
0E00
0E00
0E00
0E00
0E00
0E00
0E00
0E00
0E00
0E00
0E00
0E00
0E00
0E00
0E00
FFE0
FFE0
FFE0
ENDCHAR
STARTCHAR Idieresis.uni00CF
ENCODING 207
SWIDTH 575 0
DWIDTH 17 0
BBX 11 27 3 0
BITMAP
71C0
71C0
71C0
0000
0000
FFE0
FFE0
FFE0
0E00
0E00
0E00
0E00
0E00
0E00
0E00
0E00
0E00
0E00
0E00
0E00
0E00
0E00
0E00
0E00
FFE0
FFE0
FFE0
ENDCHAR
STARTCHAR Eth.uni00D0
ENCODING 208
SWIDTH 575 0
DWIDTH 17 0
BBX 15 22 0 0
BITMAP
3FC0
3FF0
3FF8
3878
381C
381C
380E
380E
380E
FF8E
FF8E
FF8E
380E
380E
380E
380E
381C
381C
3878
3FF8
3FF0
3FC0
ENDCHAR
STARTCHAR Ntilde.uni00D1
ENCODING 209
SWIDTH 575 0
DWIDTH 17 0
BBX 13 27 2 0
BITMAP
1E60
3FE0
33C0
0000
0000
F038
F038
F838
F838
F838
FC38
EC38
EC38
E638
E638
E638
E338
E338
E338
E1B8
E1B8
E1F8
E0F8
E0F8
E0F8
E078
E078
ENDCHAR
STARTCHAR Ograve.uni00D2
ENCODING 210
SWIDTH 575 0
DWIDTH 17 0
BBX 14 28 2 0
BITMAP
3C00
1C00
0E00
0600
0300
0000
0FC0
1FE0
3FF0
7878
7038
7038
E01C
E01C
E01C
E01C
E01C
E01C
E01C
E01C
E01C
E01C
7038
7038
7878
3FF0
1FE0
0FC0
ENDCHAR
STARTCHAR Oacute.uni00D3
ENCODING 211
SWIDTH 575 0
DWIDTH 17 0
BBX 14 28 2 0
BITMAP
01E0
01C0
0380
0300
0600
0000
0FC0
1FE0
3FF0
7878
7038
7038
E01C
E01C
E01C
E01C
E01C
E01C
E01C
E01C
E01C
E01C
7038
7038
7878
3FF0
1FE0
0FC0
ENDCHAR
STARTCHAR Ocircumflex.uni00D4
ENCODING 212
SWIDTH 575 0
DWIDTH 17 0
BBX 14 27 2 0
BITMAP
0300
0780
0CC0
1860
0000
0FC0
1FE0
3FF0
7878
7038
7038
E01C
E01C
E01C
E01C
E01C
E01C
E01C
E01C
E01C
E01C
7038
7038
7878
3FF0
1FE0
0FC0
ENDCHAR
STARTCHAR Otilde.uni00D5
ENCODING 213
SWIDTH 575 0
DWIDTH 17 0
BBX 14 27 2 0
BITMAP
1E60
3FE0
33C0
0000
0000
0FC0
1FE0
3FF0
7878
7038
7038
E01C
E01C
E01C
E01C
E01C
E01C
E01C
E01C
E01C
E01C
7038
7038
7878
3FF0
1FE0
0FC0
ENDCHAR
STARTCHAR Odieresis.uni00D6
ENCODING 214
SWIDTH 575 0
DWIDTH 17 0
BBX 14 27 2 0
BITMAP
3870
3870
3870
0000
0000
0FC0
1FE0
3FF0
7878
7038
7038
E01C
E01C
E01C
E01C
E01C
E01C
E01C
E01C
E01C
E01C
7038
7038
7878
3FF0
1FE0
0FC0
ENDCHAR
STARTCHAR multiply.uni00D7
ENCODING 215
SWIDTH 575 0
DWIDTH 17 0
BBX 13 13 2 2
BITMAP
4010
E038
7070
38E0
1DC0
0F80
0700
0F80
1DC0
38E0
7070
E038
4010
ENDCHAR
STARTCHAR Oslash.uni00D8
ENCODING 216
SWIDTH 575 0
DWIDTH 17 0
BBX 16 22 1 0
BITMAP
07E3
0FF6
1FFE
3C3C
381C
381C
703E
706E
706E
70CE
718E
718E
730E
760E
760E
7C0E
381C
381C
3C3C
7FF8
6FF0
C7E0
ENDCHAR
STARTCHAR Ugrave.uni00D9
ENCODING 217
SWIDTH 575 0
DWIDTH 17 0
BBX 13 28 2 0
BITMAP
3C00
1C00
0E00
0600
0300
0000
E038
E038
E038
E038
E038
E038
E038
E038
E038
E038
E038
E038
E038
E038
E038
E038
E038
E038
7070
7FF0
3FE0
0F80
ENDCHAR
STARTCHAR Uacute.uni00DA
ENCODING 218
SWIDTH 575 0
DWIDTH 17 0
BBX 13 28 2 0
BITMAP
01E0
01C0
0380
0300
0600
0000
E038
E038
E038
E038
E038
E038
E038
E038
E038
E038
E038
E038
E038
E038
E038
E038
E038
E038
7070
7FF0
3FE0
0F80
ENDCHAR
STARTCHAR Ucircumflex.uni00DB
ENCODING 219
SWIDTH 575 0
DWIDTH 17 0
BBX 13 27 2 0
BITMAP
0600
0F00
1980
30C0
0000
E038
E038
E038
E038
E038
E038
E038
E038
E038
E038
E038
E038
E038
E038
E038
E038
E038
E038
7070
7FF0
3FE0
0F80
ENDCHAR
STARTCHAR Udieresis.uni00DC
ENCODING 220
SWIDTH 575 0
DWIDTH 17 0
BBX 13 27 2 0
BITMAP
38E0
38E0
38E0
0000
0000
E038
E038
E038
E038
E038
E038
E038
E038
E038
E038
E038
E038
E038
E038
E038
E038
E038
E038
7070
7FF0
3FE0
0F80
ENDCHAR
STARTCHAR Yacute.uni00DD
ENCODING 221
SWIDTH 575 0
DWIDTH 17 0
BBX 17 28 0 0
BITMAP
00780000
00700000
00E00000
00C00000
01800000
00000000
F0078000
70070000
780F0000
380E0000
1C1C0000
1E3C0000
0E380000
0F780000
07700000
03E00000
03E00000
01C00000
01C00000
01C00000
01C00000
01C00000
01C00000
01C00000
01C00000
01C00000
01C00000
01C00000
ENDCHAR
STARTCHAR Thorn.uni00DE
ENCODING 222
SWIDTH 575 0
DWIDTH 17 0
BBX 13 22 3 0
BITMAP
E000
E000
E000
E000
FF80
FFE0
FFF0
E0F0
E078
E038
E038
E038
E078
E0F0
FFF0
FFE0
FF80
E000
E000
E000
E000
E000
ENDCHAR
STARTCHAR germandbls.uni00DF
ENCODING 223
SWIDTH 575 0
DWIDTH 17 0
BBX 13 23 3 0
BITMAP
1F00
7F80
7FC0
F1E0
E0E0
E0E0
E1C0
E380
E700
E600
E600
E700
E380
E1C0
E0E0
E070
E038
E038
E038
E878
EFF0
EFF0
E7C0
ENDCHAR
STARTCHAR agrave.uni00E0
ENCODING 224
SWIDTH 575 0
DWIDTH 17 0
BBX 13 24 2 0
BITMAP
3C00
1C00
0E00
0600
0300
0100
0000
0000
0F80
3FE0
7FF0
7070
4038
0038
0FF8
3FF8
7FF8
F038
E038
E078
F0F8
FFF8
7FB8
1E38
ENDCHAR
STARTCHAR aacute.uni00E1
ENCODING 225
SWIDTH 575 0
DWIDTH 17 0
BBX 13 24 2 0
BITMAP
00F0
00E0
01C0
0180
0300
0200
0000
0000
0F80
3FE0
7FF0
7070
4038
0038
0FF8
3FF8
7FF8
F038
E038
E078
F0F8
FFF8
7FB8
1E38
ENDCHAR
STARTCHAR acircumflex.uni00E2
ENCODING 226
SWIDTH 575 0
DWIDTH 17 0
BBX 13 23 2 0
BITMAP
0200
0700
0F80
1DC0
3060
0000
0000
0F80
3FE0
7FF0
7070
4038
0038
0FF8
3FF8
7FF8
F038
E038
E078
F0F8
FFF8
7FB8
1E38
ENDCHAR
STARTCHAR atilde.uni00E3
ENCODING 227
SWIDTH 575 0
DWIDTH 17 0
BBX 13 23 2 0
BITMAP
1C60
3E60
33E0
31C0
0000
0000
0000
0F80
3FE0
7FF0
7070
4038
0038
0FF8
3FF8
7FF8
F038
E038
E078
F0F8
FFF8
7FB8
1E38
ENDCHAR
STARTCHAR adieresis.uni00E4
ENCODING 228
SWIDTH 575 0
DWIDTH 17 0
BBX 13 23 2 0
BITMAP
38E0
38E0
38E0
0000
0000
0000
0000
0F80
3FE0
7FF0
7070
4038
0038
0FF8
3FF8
7FF8
F038
E038
E078
F0F8
FFF8
7FB8
1E38
ENDCHAR
STARTCHAR aring.uni00E5
ENCODING 229
SWIDTH 575 0
DWIDTH 17 0
BBX 13 26 2 0
BITMAP
0780
0FC0
1CE0
1860
1860
1CE0
0FC0
0780
0000
0000
0F80
3FE0
7FF0
7070
4038
0038
0FF8
3FF8
7FF8
F038
E038
E078
F0F8
FFF8
7FB8
1E38
ENDCHAR
STARTCHAR ae.uni00E6
ENCODING 230
SWIDTH 575 0
DWIDTH 17 0
BBX 16 16 1 0
BITMAP
3E3C
7F7E
7FFE
43C7
01C7
01C7
1FFF
7FFF
7FFF
F1C0
E1C0
E1C0
F3E1
FF7F
7F7F
3E3C
ENDCHAR
STARTCHAR ccedilla.uni00E7
ENCODING 231
SWIDTH 575 0
DWIDTH 17 0
BBX 12 22 3 -6
BITMAP
0780
1FE0
3FF0
7830
7010
E000
E000
E000
E000
E000
E000
7010
7830
3FF0
1FE0
0780
0300
0180
0180
0180
1F80
1F00
ENDCHAR
STARTCHAR egrave.uni00E8
ENCODING 232
SWIDTH 575 0
DWIDTH 17 0
BBX 14 24 2 0
BITMAP
3C00
1C00
0E00
0600
0300
0100
0000
0000
07C0
1FF0
3FF8
7838
701C
E01C
FFFC
FFFC
FFFC
E000
E000
7008
7838
3FF8
1FF0
07C0
ENDCHAR
STARTCHAR eacute.uni00E9
ENCODING 233
SWIDTH 575 0
DWIDTH 17 0
BBX 14 24 2 0
BITMAP
00F0
00E0
01C0
0180
0300
0200
0000
0000
07C0
1FF0
3FF8
7838
701C
E01C
FFFC
FFFC
FFFC
E000
E000
7008
7838
3FF8
1FF0
07C0
ENDCHAR
STARTCHAR ecircumflex.uni00EA
ENCODING 234
SWIDTH 575 0
DWIDTH 17 0
BBX 14 23 2 0
BITMAP
0100
0380
07C0
0EE0
1830
0000
0000
07C0
1FF0
3FF8
7838
701C
E01C
FFFC
FFFC
FFFC
E000
E000
7008
7838
3FF8
1FF0
07C0
ENDCHAR
STARTCHAR edieresis.uni00EB
ENCODING 235
SWIDTH 575 0
DWIDTH 17 0
BBX 14 23 2 0
BITMAP
1C70
1C70
1C70
0000
0000
0000
0000
07C0
1FF0
3FF8
7838
701C
E01C
FFFC
FFFC
FFFC
E000
E000
7008
7838
3FF8
1FF0
07C0
ENDCHAR
STARTCHAR igrave.uni00EC
ENCODING 236
SWIDTH 575 0
DWIDTH 17 0
BBX 13 24 2 0
BITMAP
3C00
1C00
0E00
0600
0300
0100
0000
0000
7F00
7F00
7F00
0700
0700
0700
0700
0700
0700
0700
0700
0700
0700
FFF8
FFF8
FFF8
ENDCHAR
STARTCHAR iacute.uni00ED
ENCODING 237
SWIDTH 575 0
DWIDTH 17 0
BBX 13 24 2 0
BITMAP
00F0
00E0
01C0
0180
0300
0200
0000
0000
7F00
7F00
7F00
0700
0700
0700
0700
0700
0700
0700
0700
0700
0700
FFF8
FFF8
FFF8
ENDCHAR
STARTCHAR icircumflex.uni00EE
ENCODING 238
SWIDTH 575 0
DWIDTH 17 0
BBX 13 23 2 0
BITMAP
0200
0700
0F80
1DC0
3060
0000
0000
7F00
7F00
7F00
0700
0700
0700
0700
0700
0700
0700
0700
0700
0700
FFF8
FFF8
FFF8
ENDCHAR
STARTCHAR idieresis.uni00EF
ENCODING 239
SWIDTH 575 0
DWIDTH 17 0
BBX 13 23 2 0
BITMAP
38E0
38E0
38E0
0000
0000
0000
0000
7F00
7F00
7F00
0700
0700
0700
0700
0700
0700
0700
0700
0700
0700
FFF8
FFF8
FFF8
ENDCHAR
STARTCHAR eth.uni00F0
ENCODING 240
SWIDTH 575 0
DWIDTH 17 0
BBX 13 23 2 0
BITMAP
3C00
1C60
1FC0
0F00
3F80
6780
03C0
0FE0
3FE0
7FF0
7870
F078
E038
E038
E038
E038
E038
E038
F078
78F0
7FF0
3FE0
0F80
ENDCHAR
STARTCHAR ntilde.uni00F1
ENCODING 241
SWIDTH 575 0
DWIDTH 17 0
BBX 12 23 3 0
BITMAP
38C0
7CC0
67C0
6380
0000
0000
0000
E7C0
EFE0
FFE0
F8F0
F070
E070
E070
E070
E070
E070
E070
E070
E070
E070
E070
E070
ENDCHAR
STARTCHAR ograve.uni00F2
ENCODING 242
SWIDTH 575 0
DWIDTH 17 0
BBX 13 24 2 0
BITMAP
3C00
1C00
0E00
0600
0300
0100
0000
0000
0F80
3FE0
7FF0
78F0
F078
E038
E038
E038
E038
E038
E038
F078
78F0
7FF0
3FE0
0F80
ENDCHAR
STARTCHAR oacute.uni00F3
ENCODING 243
SWIDTH 575 0
DWIDTH 17 0
BBX 13 24 2 0
BITMAP
00F0
00E0
01C0
0180
0300
0200
0000
0000
0F80
3FE0
7FF0
78F0
F078
E038
E038
E038
E038
E038
E038
F078
78F0
7FF0
3FE0
0F80
ENDCHAR
STARTCHAR ocircumflex.uni00F4
ENCODING 244
SWIDTH 575 0
DWIDTH 17 0
BBX 13 23 2 0
BITMAP
0200
0700
0F80
1DC0
3060
0000
0000
0F80
3FE0
7FF0
78F0
F078
E038
E038
E038
E038
E038
E038
F078
78F0
7FF0
3FE0
0F80
ENDCHAR
STARTCHAR otilde.uni00F5
ENCODING 245
SWIDTH 575 0
DWIDTH 17 0
BBX 13 23 2 0
BITMAP
1C60
3E60
33E0
31C0
0000
0000
0000
0F80
3FE0
7FF0
78F0
F078
E038
E038
E038
E038
E038
E038
F078
78F0
7FF0
3FE0
0F80
ENDCHAR
STARTCHAR odieresis.uni00F6
ENCODING 246
SWIDTH 575 0
DWIDTH 17 0
BBX 13 23 2 0
BITMAP
38E0
38E0
38E0
0000
0000
0000
0000
0F80
3FE0
7FF0
78F0
F078
E038
E038
E038
E038
E038
E038
F078
78F0
7FF0
3FE0
0F80
ENDCHAR
STARTCHAR divide.uni00F7
ENCODING 247
SWIDTH 575 0
DWIDTH 17 0
BBX 15 14 1 2
BITMAP
0380
0380
0380
0380
0000
0000
FFFE
FFFE
0000
0000
0380
0380
0380
0380
ENDCHAR
STARTCHAR oslash.uni00F8
ENCODING 248
SWIDTH 575 0
DWIDTH 17 0
BBX 13 16 2 0
BITMAP
0F98
3FF0
7FF0
78F0
F0F8
E1B8
E138
E338
E638
E438
EC38
F878
78F0
7FF0
7FE0
CF80
ENDCHAR
STARTCHAR ugrave.uni00F9
ENCODING 249
SWIDTH 575 0
DWIDTH 17 0
BBX 12 24 3 0
BITMAP
7800
3800
1C00
0C00
0600
0200
0000
0000
E070
E070
E070
E070
E070
E070
E070
E070
E070
E070
E070
E0F0
F1F0
7FF0
7F70
3E70
ENDCHAR
STARTCHAR uacute.uni00FA
ENCODING 250
SWIDTH 575 0
DWIDTH 17 0
BBX 12 24 3 0
BITMAP
01E0
01C0
0380
0300
0600
0400
0000
0000
E070
E070
E070
E070
E070
E070
E070
E070
E070
E070
E070
E0F0
F1F0
7FF0
7F70
3E70
ENDCHAR
STARTCHAR x-hat.uni0302
ENCODING 770
SWIDTH 575 0
DWIDTH 17 0
BBX 15 23 1 0
BITMAP
0380
0FE0
1EF0
783C
701C
0000
0000
783C
3C78
1C70
1EF0
0EE0
07C0
07C0
0380
0380
07C0
0FE0
1EF0
3C78
3838
783C
F01E
ENDCHAR
STARTCHAR x-bar.uni0304
ENCODING 772
SWIDTH 575 0
DWIDTH 17 0
BBX 15 22 1 0
BITMAP
3FF8
3FF8
0000
0000
0000
0000
783C
3C78
1C70
1EF0
0EE0
07C0
07C0
0380
0380
07C0
0FE0
1EF0
3C78
3838
783C
F01E
ENDCHAR
STARTCHAR y-hat.uni0177
ENCODING 375
SWIDTH 575 0
DWIDTH 17 0
BBX 14 29 1 -6
BITMAP
0380
0FE0
1EF0
783C
701C
0000
0000
E01C
7038
7038
7878
3870
3870
3CF0
1CE0
1CE0
0FC0
0FC0
0FC0
0780
0780
0780
0700
0700
0F00
0E00
7E00
7C00
7800
ENDCHAR
STARTCHAR thorn.uni00FE
ENCODING 254
SWIDTH 575 0
DWIDTH 17 0
BBX 13 29 3 -6
BITMAP
E000
E000
E000
E000
E000
E000
E000
E780
EFE0
FFF0
F8F0
F078
E038
E038
E038
E038
E038
E038
F078
F8F0
FFF0
EFE0
E7C0
E000
E000
E000
E000
E000
E000
ENDCHAR
STARTCHAR y-bar.uni0233
ENCODING 563
SWIDTH 575 0
DWIDTH 17 0
BBX 14 28 1 -6
BITMAP
3FF8
3FF8
0000
0000
0000
0000
E01C
7038
7038
7878
3870
3870
3CF0
1CE0
1CE0
0FC0
0FC0
0FC0
0780
0780
0780
0700
0700
0F00
0E00
7E00
7C00
7800
ENDCHAR
STARTCHAR Cacute.uni0106
ENCODING 262
SWIDTH 575 0
DWIDTH 17 0
BBX 13 28 2 0
BITMAP
00F0
00E0
01C0
0180
0300
0000
07E0
0FF0
1FF8
3C18
7808
7000
7000
E000
E000
E000
E000
E000
E000
E000
E000
7000
7000
7808
3C18
3FF8
0FF0
07E0
ENDCHAR
STARTCHAR cacute.uni0107
ENCODING 263
SWIDTH 575 0
DWIDTH 17 0
BBX 12 24 3 0
BITMAP
01E0
01C0
0380
0300
0600
0400
0000
0000
0780
1FE0
3FF0
7830
7010
E000
E000
E000
E000
E000
E000
7010
7830
3FF0
1FE0
0780
ENDCHAR
STARTCHAR Ccaron.uni010C
ENCODING 268
SWIDTH 575 0
DWIDTH 17 0
BBX 13 27 2 0
BITMAP
1860
0CC0
0780
0300
0000
07E0
0FF0
1FF8
3C18
7808
7000
7000
E000
E000
E000
E000
E000
E000
E000
E000
7000
7000
7808
3C18
3FF8
0FF0
07E0
ENDCHAR
STARTCHAR ccaron.uni010D
ENCODING 269
SWIDTH 575 0
DWIDTH 17 0
BBX 12 24 3 0
BITMAP
3060
38E0
18C0
0D80
0700
0200
0000
0000
0780
1FE0
3FF0
7830
7010
E000
E000
E000
E000
E000
E000
7010
7830
3FF0
1FE0
0780
ENDCHAR
STARTCHAR dcroat.uni0111
ENCODING 273
SWIDTH 575 0
DWIDTH 17 0
BBX 15 23 2 0
BITMAP
0038
0038
0038
03FE
03FE
0038
0038
0F38
3FB8
7FF8
78F8
F078
E038
E038
E038
E038
E038
E038
F078
78F8
7FF8
3FB8
0F38
ENDCHAR
STARTCHAR Gbreve.uni011E
ENCODING 286
SWIDTH 575 0
DWIDTH 17 0
BBX 14 28 2 0
BITMAP
1830
1C70
0FE0
0380
0000
0000
07E0
0FF0
3FF8
3C18
7808
7000
7000
E000
E000
E000
E0FC
E0FC
E0FC
E01C
E01C
701C
701C
781C
3C3C
3FFC
0FF8
07E0
ENDCHAR
STARTCHAR gbreve.uni011F
ENCODING 287
SWIDTH 575 0
DWIDTH 17 0
BBX 13 30 2 -6
BITMAP
3060
38E0
1FC0
0700
0000
0000
0000
0000
0F38
3FB8
7FF8
78F8
F078
E038
E038
E038
E038
E038
E038
F078
78F8
7FF8
3FB8
0F38
0038
0078
20F0
3FF0
3FE0
1F80
ENDCHAR
STARTCHAR Idotaccent.uni0130
ENCODING 304
SWIDTH 575 0
DWIDTH 17 0
BBX 11 27 3 0
BITMAP
0E00
0E00
0E00
0000
0000
FFE0
FFE0
FFE0
0E00
0E00
0E00
0E00
0E00
0E00
0E00
0E00
0E00
0E00
0E00
0E00
0E00
0E00
0E00
0E00
FFE0
FFE0
FFE0
ENDCHAR
STARTCHAR dotlessi.uni0131
ENCODING 305
SWIDTH 575 0
DWIDTH 17 0
BBX 13 16 2 0
BITMAP
7F00
7F00
7F00
0700
0700
0700
0700
0700
0700
0700
0700
0700
0700
FFF8
FFF8
FFF8
ENDCHAR
STARTCHAR Lslash.uni0141
ENCODING 321
SWIDTH 575 0
DWIDTH 17 0
BBX 16 22 0 0
BITMAP
1C00
1C00
1C00
1C00
1C00
1C00
1C00
1C70
1DF0
1FC0
1F00
7C00
FC00
DC00
1C00
1C00
1C00
1C00
1C00
1FFF
1FFF
1FFF
ENDCHAR
STARTCHAR lslash.uni0142
ENCODING 322
SWIDTH 575 0
DWIDTH 17 0
BBX 13 23 2 0
BITMAP
FE00
FE00
FE00
0E00
0E00
0E00
0E38
0EF8
0FE0
0F80
3E00
FE00
EE00
0E00
0E00
0E00
0E00
0E00
0E00
0F00
07F0
07F0
01F0
ENDCHAR
STARTCHAR OE.uni0152
ENCODING 338
SWIDTH 575 0
DWIDTH 17 0
BBX 16 22 1 0
BITMAP
07FF
1FFF
3FFF
78E0
70E0
F0E0
E0E0
E0E0
E0E0
E0FE
E0FE
E0FE
E0E0
E0E0
E0E0
E0E0
F0E0
70E0
78E0
3FFF
1FFF
07FF
ENDCHAR
STARTCHAR oe.uni0153
ENCODING 339
SWIDTH 575 0
DWIDTH 17 0
BBX 16 16 0 0
BITMAP
1E3C
7F7E
7FFE
F3C7
E1C7
E1C7
E1FF
E1FF
E1FF
E1C0
E1C0
E1C0
F3E1
7F7F
7F7F
1E3C
ENDCHAR
STARTCHAR Scedilla.uni015E
ENCODING 350
SWIDTH 575 0
DWIDTH 17 0
BBX 13 28 2 -6
BITMAP
0FC0
3FF0
7FF0
7810
F000
E000
E000
E000
F000
7E00
3FC0
0FE0
01F0
0078
0038
0038
0038
0078
C0F8
FFF0
FFE0
3F80
0300
0180
0180
0180
1F80
1F00
ENDCHAR
STARTCHAR scedilla.uni015F
ENCODING 351
SWIDTH 575 0
DWIDTH 17 0
BBX 11 22 3 -6
BITMAP
1F80
7FC0
FFC0
E040
E000
F800
7F00
3F80
0FC0
01E0
00E0
80E0
E1E0
FFC0
7FC0
1F00
0600
0300
0300
0300
3F00
3E00
ENDCHAR
STARTCHAR Scaron.uni0160
ENCODING 352
SWIDTH 575 0
DWIDTH 17 0
BBX 13 27 2 0
BITMAP
1860
0CC0
0780
0300
0000
0FC0
3FF0
7FF0
7810
F000
E000
E000
E000
F000
7E00
3FC0
0FE0
01F0
0078
0038
0038
0038
0078
C0F8
FFF0
FFE0
3F80
ENDCHAR
STARTCHAR scaron.uni0161
ENCODING 353
SWIDTH 575 0
DWIDTH 17 0
BBX 11 24 3 0
BITMAP
60C0
71C0
3180
1B00
0E00
0400
0000
0000
1F80
7FC0
FFC0
E040
E000
F800
7F00
3F80
0FC0
01E0
00E0
80E0
E1E0
FFC0
7FC0
1F00
ENDCHAR
STARTCHAR Ydieresis.uni0178
ENCODING 376
SWIDTH 575 0
DWIDTH 17 0
BBX 17 27 0 0
BITMAP
0E380000
0E380000
0E380000
00000000
00000000
F0078000
70070000
780F0000
380E0000
1C1C0000
1E3C0000
0E380000
0F780000
07700000
03E00000
03E00000
01C00000
01C00000
01C00000
01C00000
01C00000
01C00000
01C00000
01C00000
01C00000
01C00000
01C00000
ENDCHAR
STARTCHAR Zcaron.uni017D
ENCODING 381
SWIDTH 575 0
DWIDTH 17 0
BBX 14 27 2 0
BITMAP
1860
0CC0
0780
0300
0000
FFFC
FFFC
FFFC
0038
0078
0070
00E0
01E0
01C0
03C0
0380
0780
0F00
0E00
1E00
1C00
3C00
7800
7000
FFFC
FFFC
FFFC
ENDCHAR
STARTCHAR zcaron.uni017E
ENCODING 382
SWIDTH 575 0
DWIDTH 17 0
BBX 11 24 3 0
BITMAP
60C0
71C0
3180
1B00
0E00
0400
0000
0000
FFE0
FFE0
FFE0
01C0
03C0
0780
0700
0F00
1E00
1C00
3800
7800
7000
FFE0
FFE0
FFE0
ENDCHAR
STARTCHAR florin.uni0192
ENCODING 402
SWIDTH 575 0
DWIDTH 17 0
BBX 16 29 0 -6
BITMAP
001E
003F
003F
0079
0070
00F0
00E0
00E0
00E0
00E0
00E0
0FFC
0FFC
0FFC
01C0
01C0
01C0
01C0
01C0
0380
0380
0380
0380
0380
0700
8F00
FF00
FE00
7800
ENDCHAR
STARTCHAR circumflex.uni02C6
ENCODING 710
SWIDTH 575 0
DWIDTH 17 0
BBX 9 5 4 18
BITMAP
0800
1C00
3E00
7700
C180
ENDCHAR
STARTCHAR caron.uni02C7
ENCODING 711
SWIDTH 575 0
DWIDTH 17 0
BBX 9 6 4 18
BITMAP
C180
E380
6300
3600
1C00
0800
ENDCHAR
STARTCHAR breve.uni02D8
ENCODING 728
SWIDTH 575 0
DWIDTH 17 0
BBX 9 4 4 20
BITMAP
C180
E380
7F00
1C00
ENDCHAR
STARTCHAR dotaccent.uni02D9
ENCODING 729
SWIDTH 575 0
DWIDTH 17 0
BBX 3 3 7 20
BITMAP
E000
E000
E000
ENDCHAR
STARTCHAR ring.uni02DA
ENCODING 730
SWIDTH 575 0
DWIDTH 17 0
BBX 6 6 6 19
BITMAP
7800
CC00
8400
8400
CC00
7800
ENDCHAR
STARTCHAR ogonek.uni02DB
ENCODING 731
SWIDTH 575 0
DWIDTH 17 0
BBX 5 6 6 -6
BITMAP
6000
C000
C000
C000
F800
7800
ENDCHAR
STARTCHAR tilde.uni02DC
ENCODING 732
SWIDTH 575 0
DWIDTH 17 0
BBX 9 4 4 19
BITMAP
7180
F980
CF80
C700
ENDCHAR
STARTCHAR hungarumlaut.uni02DD
ENCODING 733
SWIDTH 575 0
DWIDTH 17 0
BBX 9 6 5 18
BITMAP
3B80
3300
7700
6600
6600
CC00
ENDCHAR
STARTCHAR Sigma.uni03A3
ENCODING 931
SWIDTH 575 0
DWIDTH 17 0
BBX 14 22 1 0
BITMAP
7FF8
7FF8
7FF8
7800
3C00
1C00
0E00
0F00
0780
03C0
01C0
03C0
0780
0700
0E00
1E00
3C00
3800
7000
FFFC
FFFC
FFFC
ENDCHAR
STARTCHAR Omega.uni03A9
ENCODING 937
SWIDTH 575 0
DWIDTH 17 0
BBX 14 21 1 0
BITMAP
0780
1FE0
3CF0
7878
7038
7038
E01C
E01C
E01C
E01C
E01C
E01C
E01C
E01C
E01C
7038
7038
3870
1860
FCFC
FCFC
ENDCHAR
STARTCHAR mu.uni03BC
ENCODING 956
SWIDTH 575 0
DWIDTH 17 0
BBX 14 22 3 -6
BITMAP
E070
E070
E070
E070
E070
E070
E070
E070
E070
E070
E070
E0F0
F0F0
FFFC
FFBC
EF1C
E000
E000
E000
E000
E000
E000
ENDCHAR
STARTCHAR pi.uni03C0
ENCODING 960
SWIDTH 575 0
DWIDTH 17 0
BBX 15 16 1 0
BITMAP
FFFE
FFFE
3838
3838
3838
3838
3838
3838
3838
3838
3838
3838
3838
3838
383E
381E
ENDCHAR
STARTCHAR exponent.uni1D07
ENCODING 7431
SWIDTH 575 0
DWIDTH 17 0
BBX 11 17 3 0
BITMAP
FFE0
FFE0
E000
E000
E000
E000
E000
FFC0
FFC0
E000
E000
E000
E000
E000
E000
FFE0
FFE0
ENDCHAR
STARTCHAR endash.uni2013
ENCODING 8211
SWIDTH 575 0
DWIDTH 17 0
BBX 11 3 3 6
BITMAP
FFE0
FFE0
FFE0
ENDCHAR
STARTCHAR emdash.uni2014
ENCODING 8212
SWIDTH 575 0
DWIDTH 17 0
BBX 15 3 1 6
BITMAP
FFFE
FFFE
FFFE
ENDCHAR
STARTCHAR quoteleft.uni2018
ENCODING 8216
SWIDTH 575 0
DWIDTH 17 0
BBX 4 9 6 14
BITMAP
3000
7000
7000
6000
E000
E000
E000
E000
E000
ENDCHAR
STARTCHAR quoteright.uni2019
ENCODING 8217
SWIDTH 575 0
DWIDTH 17 0
BBX 4 9 7 14
BITMAP
7000
7000
7000
7000
7000
6000
E000
E000
C000
ENDCHAR
STARTCHAR quotesinglbase.uni201A
ENCODING 8218
SWIDTH 575 0
DWIDTH 17 0
BBX 4 9 6 -4
BITMAP
7000
7000
7000
7000
7000
6000
E000
E000
C000
ENDCHAR
STARTCHAR quotedblleft.uni201C
ENCODING 8220
SWIDTH 575 0
DWIDTH 17 0
BBX 10 9 4 14
BITMAP
30C0
71C0
71C0
6180
E380
E380
E380
E380
E380
ENDCHAR
STARTCHAR quotedblright.uni201D
ENCODING 8221
SWIDTH 575 0
DWIDTH 17 0
BBX 10 9 4 14
BITMAP
71C0
71C0
71C0
71C0
71C0
6180
E380
E380
C300
ENDCHAR
STARTCHAR quotedblbase.uni201E
ENCODING 8222
SWIDTH 575 0
DWIDTH 17 0
BBX 10 9 4 -4
BITMAP
71C0
71C0
71C0
71C0
71C0
6180
E380
E380
C300
ENDCHAR
STARTCHAR dagger.uni2020
ENCODING 8224
SWIDTH 575 0
DWIDTH 17 0
BBX 13 25 2 -3
BITMAP
0700
0700
0700
0700
0700
0700
FFF8
FFF8
FFF8
0700
0700
0700
0700
0700
0700
0700
0700
0700
0700
0700
0700
0700
0700
0700
0700
ENDCHAR
STARTCHAR daggerdbl.uni2021
ENCODING 8225
SWIDTH 575 0
DWIDTH 17 0
BBX 13 25 2 -3
BITMAP
0700
0700
0700
0700
0700
0700
FFF8
FFF8
FFF8
0700
0700
0700
0700
0700
0700
0700
FFF8
FFF8
FFF8
0700
0700
0700
0700
0700
0700
ENDCHAR
STARTCHAR bullet.uni2022
ENCODING 8226
SWIDTH 575 0
DWIDTH 17 0
BBX 8 8 4 6
BITMAP
3C00
7E00
FF00
FF00
FF00
FF00
7E00
3C00
ENDCHAR
STARTCHAR ellipsis.uni2026
ENCODING 8230
SWIDTH 575 0
DWIDTH 17 0
BBX 15 4 1 0
BITMAP
E38E
E38E
E38E
E38E
ENDCHAR
STARTCHAR perthousand.uni2030
ENCODING 8240
SWIDTH 575 0
DWIDTH 17 0
BBX 17 22 0 0
BITMAP
3C000000
7E000000
E7000000
C3000000
C3000000
E7030000
7E0F0000
3C3C0000
00F00000
03C00000
0F000000
3C000000
F0000000
C0000000
1E1E0000
3F3F0000
73F38000
61E18000
61E18000
73F38000
3F3F0000
1E1E0000
ENDCHAR
STARTCHAR guilsinglleft.uni2039
ENCODING 8249
SWIDTH 575 0
DWIDTH 17 0
BBX 6 13 5 3
BITMAP
0400
0C00
1C00
3800
7000
E000
C000
E000
7000
3800
1C00
0C00
0400
ENDCHAR
STARTCHAR guilsinglright.uni203A
ENCODING 8250
SWIDTH 575 0
DWIDTH 17 0
BBX 6 13 6 3
BITMAP
8000
C000
E000
7000
3800
1C00
0C00
1C00
3800
7000
E000
C000
8000
ENDCHAR
STARTCHAR Euro.uni20AC
ENCODING 8364
SWIDTH 575 0
DWIDTH 17 0
BBX 14 22 1 0
BITMAP
01F0
07F8
0FFC
1F0C
1C04
1C00
3800
3800
FFC0
FFC0
3800
3800
FFC0
FFC0
3800
3800
1C00
1C04
0F0C
0FFC
07F8
01F0
ENDCHAR
STARTCHAR trademark.uni2122
ENCODING 8482
SWIDTH 575 0
DWIDTH 17 0
BBX 15 8 0 14
BITMAP
FD86
FD86
31CE
31FE
31B6
31B6
3186
3186
ENDCHAR
STARTCHAR arrowleft.uni2190
ENCODING 8592
SWIDTH 575 0
DWIDTH 17 0
BBX 16 11 0 2
BITMAP
0600
0E00
1C00
3C00
7FFF
FFFF
7FFF
3C00
1C00
0E00
0600
ENDCHAR
STARTCHAR arrowup.uni2191
ENCODING 8593
SWIDTH 575 0
DWIDTH 17 0
BBX 11 28 3 -6
BITMAP
0400
0E00
1F00
3F80
7FC0
FFE0
CE60
0E00
0E00
0E00
0E00
0E00
0E00
0E00
0E00
0E00
0E00
0E00
0E00
0E00
0E00
0E00
0E00
0E00
0E00
0E00
0E00
0E00
ENDCHAR
STARTCHAR arrowright.uni2192
ENCODING 8594
SWIDTH 575 0
DWIDTH 17 0
BBX 16 11 0 2
BITMAP
0060
0070
0038
003C
FFFE
FFFF
FFFE
003C
0038
0070
0060
ENDCHAR
STARTCHAR arrowdown.uni2193
ENCODING 8595
SWIDTH 575 0
DWIDTH 17 0
BBX 11 28 3 -6
BITMAP
0E00
0E00
0E00
0E00
0E00
0E00
0E00
0E00
0E00
0E00
0E00
0E00
0E00
0E00
0E00
0E00
0E00
0E00
0E00
0E00
0E00
CE60
FFE0
7FC0
3F80
1F00
0E00
0400
ENDCHAR
STARTCHAR carriagereturn.uni21B5
ENCODING 8629
SWIDTH 575 0
DWIDTH 17 0
BBX 15 19 0 1
BITMAP
000E
000E
000E
000E
000E
000E
000E
000E
060E
0E0E
1C0E
3C0E
7FFE
FFFE
7FFC
3C00
1C00
0E00
0600
ENDCHAR
STARTCHAR partialdiff.uni2202
ENCODING 8706
SWIDTH 575 0
DWIDTH 17 0
BBX 12 19 3 0
BITMAP
0780
0FC0
1E60
0C20
0030
0030
0030
1F30
38B0
7070
7070
E070
E060
E060
E060
E0C0
60C0
7180
1E00
ENDCHAR
STARTCHAR Delta.uni2206
ENCODING 8710
SWIDTH 575 0
DWIDTH 17 0
BBX 17 22 0 0
BITMAP
01C00000
01C00000
03E00000
03E00000
03E00000
07F00000
07700000
07700000
0F780000
0E380000
0E380000
1E3C0000
1C1C0000
1C1C0000
3C1E0000
380E0000
380E0000
780F0000
70070000
70070000
FFFF8000
FFFF8000
ENDCHAR
STARTCHAR Pi.uni03A0
ENCODING 928
SWIDTH 575 0
DWIDTH 17 0
BBX 13 22 2 0
BITMAP
FFF8
FFF8
FFF8
E038
E038
E038
E038
E038
E038
E038
E038
E038
E038
E038
E038
E038
E038
E038
E038
E038
E038
E038
ENDCHAR
STARTCHAR summation.uni2211
ENCODING 8721
SWIDTH 575 0
DWIDTH 17 0
BBX 13 28 2 -6
BITMAP
FFF8
FFF8
6000
7000
3800
1800
1C00
0E00
0600
0700
0380
0180
01C0
00E0
00E0
01C0
0180
0380
0700
0600
0E00
1C00
1800
3800
7000
6000
FFF8
FFF8
ENDCHAR
STARTCHAR minus.uni2212
ENCODING 8722
SWIDTH 575 0
DWIDTH 17 0
BBX 11 3 3 9
BITMAP
FFE0
FFE0
FFE0
ENDCHAR
STARTCHAR slashdiv.uni2215
ENCODING 8725
SWIDTH 575 0
DWIDTH 17 0
BBX 15 25 1 -3
BITMAP
000E
001C
001C
0038
0038
0070
0070
00E0
00E0
01C0
01C0
0380
0380
0700
0700
0E00
0E00
1C00
1C00
3800
3800
7000
7000
E000
E000
ENDCHAR
STARTCHAR bulletop.uni2219
ENCODING 8729
SWIDTH 575 0
DWIDTH 17 0
BBX 5 5 7 8
BITMAP
F800
F800
F800
F800
F800
ENDCHAR
STARTCHAR radical.uni221A
ENCODING 8730
SWIDTH 575 0
DWIDTH 17 0
BBX 16 26 1 -1
BITMAP
0003
0003
0006
0006
0006
000C
000C
000C
000C
0018
0018
0018
F030
F830
1830
1830
0C60
0C60
0C60
06C0
06C0
06C0
07C0
0380
0380
0380
ENDCHAR
STARTCHAR infinity.uni221E
ENCODING 8734
SWIDTH 575 0
DWIDTH 17 0
BBX 16 11 1 4
BITMAP
3C3C
7E7E
6666
C3C3
C183
C183
C183
C3C3
6666
7E7E
3C3C
ENDCHAR
STARTCHAR mesangle.uni2221
ENCODING 8737
SWIDTH 575 0
DWIDTH 17 0
BBX 15 21 1 0
BITMAP
0020
0070
0060
00E0
00C0
01C0
0180
0380
0300
0700
0600
0F80
0FC0
1CE0
1860
3870
3030
7030
6030
FFFE
FFFE
ENDCHAR
STARTCHAR integral.uni222B
ENCODING 8747
SWIDTH 575 0
DWIDTH 17 0
BBX 13 28 2 -5
BITMAP
0070
01F8
01B8
03B8
0380
0300
0300
0700
0700
0700
0700
0700
0700
0700
0700
0700
0700
0700
0700
0700
0700
0600
0600
0E00
EE00
EC00
FC00
7000
ENDCHAR
STARTCHAR approxequal.uni2248
ENCODING 8776
SWIDTH 575 0
DWIDTH 17 0
BBX 14 9 1 5
BITMAP
3C04
FF0C
C3FC
80F0
0000
3C04
FF0C
C3FC
80F0
ENDCHAR
STARTCHAR notequal.uni2260
ENCODING 8800
SWIDTH 575 0
DWIDTH 17 0
BBX 14 17 1 1
BITMAP
0008
001C
0038
0030
0070
FFFC
FFFC
0380
0300
0700
FFFC
FFFC
3800
3000
7000
E000
4000
ENDCHAR
STARTCHAR lessequal.uni2264
ENCODING 8804
SWIDTH 575 0
DWIDTH 17 0
BBX 14 15 1 0
BITMAP
001C
00FC
07F0
3F80
F800
F800
3F80
07F0
00FC
001C
0000
0000
0000
FFFC
FFFC
ENDCHAR
STARTCHAR greaterequal.uni2265
ENCODING 8805
SWIDTH 575 0
DWIDTH 17 0
BBX 14 15 1 0
BITMAP
E000
FC00
3F80
07F0
007C
007C
07F0
3F80
FC00
E000
0000
0000
0000
FFFC
FFFC
ENDCHAR
STARTCHAR lf.uni240A
ENCODING 9226
SWIDTH 575 0
DWIDTH 17 0
BBX 15 24 1 -1
BITMAP
C000
C000
C000
C000
C000
C000
C000
C000
C000
FC00
FC00
0000
00FE
00FE
00C0
00C0
00C0
00FC
00FC
00C0
00C0
00C0
00C0
00C0
ENDCHAR
STARTCHAR esc.uni241B
ENCODING 9243
SWIDTH 575 0
DWIDTH 17 0
BBX 17 29 0 -5
BITMAP
F8000000
F8000000
C0000000
C0000000
F0000000
C0000000
C0000000
C0000000
F9E00000
FBF00000
03300000
03000000
01800000
00C00000
00600000
00300000
03300000
03F00000
01E00000
00070000
000F8000
001C8000
00180000
00180000
00180000
00180000
001C8000
000F8000
00070000
ENDCHAR
STARTCHAR bdlvr.uni251C
ENCODING 9500
SWIDTH 575 0
DWIDTH 17 0
BBX 10 27 4 -4
BITMAP
E000
E000
E000
E000
E000
E000
E000
E000
E000
E000
E000
E000
FFC0
FFC0
FFC0
E000
E000
E000
E000
E000
E000
E000
E000
E000
E000
E000
E000
ENDCHAR
STARTCHAR shade.uni2592
ENCODING 9618
SWIDTH 575 0
DWIDTH 17 0
BBX 17 29 0 -5
BITMAP
55550000
00000000
AAAA8000
00000000
55550000
00000000
AAAA8000
00000000
55550000
00000000
AAAA8000
00000000
55550000
00000000
AAAA8000
00000000
55550000
00000000
AAAA8000
00000000
55550000
00000000
AAAA8000
00000000
55550000
00000000
AAAA8000
00000000
55550000
ENDCHAR
STARTCHAR filledbox.uni25A0
ENCODING 9632
SWIDTH 575 0
DWIDTH 17 0
BBX 11 13 3 2
BITMAP
FFE0
FFE0
FFE0
FFE0
FFE0
FFE0
FFE0
FFE0
FFE0
FFE0
FFE0
FFE0
FFE0
ENDCHAR
STARTCHAR triagup.uni25B2
ENCODING 9650
SWIDTH 575 0
DWIDTH 17 0
BBX 15 16 1 2
BITMAP
0100
0100
0380
0380
07C0
07C0
0FE0
0FE0
1FF0
1FF0
3FF8
3FF8
7FFC
7FFC
FFFE
FFFE
ENDCHAR
STARTCHAR triagright.uni25B6
ENCODING 9654
SWIDTH 575 0
DWIDTH 17 0
BBX 15 15 1 2
BITMAP
8000
E000
F800
FE00
FF80
FFE0
FFF8
FFFE
FFF8
FFE0
FF80
FE00
F800
E000
8000
ENDCHAR
STARTCHAR triagdn.uni25BC
ENCODING 9660
SWIDTH 575 0
DWIDTH 17 0
BBX 15 16 1 0
BITMAP
FFFE
FFFE
7FFC
7FFC
3FF8
3FF8
1FF0
1FF0
0FE0
0FE0
07C0
07C0
0380
0380
0100
0100
ENDCHAR
STARTCHAR lozenge.uni25CA
ENCODING 9674
SWIDTH 575 0
DWIDTH 17 0
BBX 14 27 2 -5
BITMAP
0300
0300
0780
0480
0CC0
0840
1860
1020
3030
2010
6018
4008
C00C
8004
C00C
4008
6018
2010
3030
1020
1860
0840
0CC0
0480
0780
0300
0300
ENDCHAR
STARTCHAR fi.uniFB01
ENCODING 64257
SWIDTH 575 0
DWIDTH 17 0
BBX 15 23 0 0
BITMAP
03EE
0FEE
0FEE
1C00
1C00
1C00
1C00
FFFE
FFFE
FFFE
1C0E
1C0E
1C0E
1C0E
1C0E
1C0E
1C0E
1C0E
1C0E
1C0E
1C0E
1C0E
1C0E
ENDCHAR
STARTCHAR fl.uniFB02
ENCODING 64258
SWIDTH 575 0
DWIDTH 17 0
BBX 15 23 0 0
BITMAP
03FE
0FFE
0FFE
1E0E
1C0E
1C0E
1C0E
FFCE
FFCE
FFCE
1C0E
1C0E
1C0E
1C0E
1C0E
1C0E
1C0E
1C0E
1C0E
1C0E
1C0E
1C0E
1C0E
ENDCHAR
STARTCHAR uparrtipleft.uni21B0
ENCODING 8624
SWIDTH 786 0
DWIDTH 17 0
BBX 15 23 0 0
BITMAP
0600
0E00
1C00
3C00
7FF0
FFFC
7FFC
3C1E
1C0E
0E0E
060E
000E
000E
000E
000E
000E
000E
000E
000E
000E
000E
000E
000E
ENDCHAR
STARTCHAR uparrtipright.uni21B1
ENCODING 8625
SWIDTH 786 0
DWIDTH 17 0
BBX 15 23 2 0
BITMAP
00C0
00E0
0070
0078
1FFC
7FFE
7FFC
F078
E070
E0E0
E0C0
E000
E000
E000
E000
E000
E000
E000
E000
E000
E000
E000
E000
ENDCHAR
STARTCHAR sigma.uni03C3
ENCODING 963
SWIDTH 786 0
DWIDTH 17 0
BBX 14 16 2 0
BITMAP
0FFC
3FFC
7FFC
7BC0
F0F0
E070
E078
E038
E038
E038
E038
F078
78F0
7FF0
3FE0
0F80
ENDCHAR
STARTCHAR xsuperior.uni02E3
ENCODING 739
SWIDTH 786 0
DWIDTH 17 0
BBX 9 12 3 10
BITMAP
C180
E380
6300
3600
3E00
1C00
1C00
3E00
7700
6300
E380
C180
ENDCHAR
STARTCHAR theta.uni03B8
ENCODING 952
SWIDTH 786 0
DWIDTH 17 0
BBX 14 22 2 0
BITMAP
0FC0
1FE0
3FF0
7878
7038
7038
E01C
E01C
E01C
FFFC
FFFC
FFFC
E01C
E01C
E01C
E01C
7038
7038
7878
3FF0
1FE0
0FC0
ENDCHAR
STARTCHAR eqminus.uni23BB
ENCODING 9147
SWIDTH 575 0
DWIDTH 17 0
BBX 11 3 3 15
BITMAP
FFE0
FFE0
FFE0
ENDCHAR
STARTCHAR block.uni2588
ENCODING 9608
SWIDTH 786 0
DWIDTH 17 0
BBX 17 29 0 -5
BITMAP
FFFF8000
FFFF8000
FFFF8000
FFFF8000
FFFF8000
FFFF8000
FFFF8000
FFFF8000
FFFF8000
FFFF8000
FFFF8000
FFFF8000
FFFF8000
FFFF8000
FFFF8000
FFFF8000
FFFF8000
FFFF8000
FFFF8000
FFFF8000
FFFF8000
FFFF8000
FFFF8000
FFFF8000
FFFF8000
FFFF8000
FFFF8000
FFFF8000
FFFF8000
ENDCHAR
STARTCHAR boldparleft.uni27EA
ENCODING 10218
SWIDTH 786 0
DWIDTH 17 0
BBX 8 27 5 -4
BITMAP
0F00
1E00
1E00
3E00
3C00
7C00
7C00
7C00
7800
F800
F800
F800
F800
F800
F800
F800
F800
F800
7800
7C00
7C00
7C00
3C00
3E00
1E00
1E00
0F00
ENDCHAR
STARTCHAR boldparright.uni27EB
ENCODING 10219
SWIDTH 786 0
DWIDTH 17 0
BBX 8 27 4 -4
BITMAP
F000
7800
7800
7C00
3C00
3E00
3E00
3E00
1E00
1F00
1F00
1F00
1F00
1F00
1F00
1F00
1F00
1F00
1E00
3E00
3E00
3E00
3C00
7C00
7800
7800
F000
ENDCHAR
STARTCHAR ucircumflex.uni00FB
ENCODING 251
SWIDTH 786 0
DWIDTH 17 0
BBX 12 23 3 0
BITMAP
0400
0E00
1F00
3B80
60C0
0000
0000
E070
E070
E070
E070
E070
E070
E070
E070
E070
E070
E070
E0F0
F1F0
7FF0
7F70
3E70
ENDCHAR
STARTCHAR udieresis.uni00FC
ENCODING 252
SWIDTH 786 0
DWIDTH 17 0
BBX 12 23 3 0
BITMAP
70E0
70E0
70E0
0000
0000
0000
0000
E070
E070
E070
E070
E070
E070
E070
E070
E070
E070
E070
E0F0
F1F0
7FF0
7F70
3E70
ENDCHAR
STARTCHAR yacute.uni00FD
ENCODING 253
SWIDTH 575 0
DWIDTH 17 0
BBX 14 30 1 -6
BITMAP
01E0
01C0
0380
0300
0600
0400
0000
0000
E01C
7038
7038
7878
3870
3870
3CF0
1CE0
1CE0
0FC0
0FC0
0FC0
0780
0780
0780
0700
0700
0F00
0E00
7E00
7C00
7800
ENDCHAR
STARTCHAR ydieresis.uni00FF
ENCODING 255
SWIDTH 575 0
DWIDTH 17 0
BBX 14 29 1 -6
BITMAP
1C70
1C70
1C70
0000
0000
0000
0000
E01C
7038
7038
7878
3870
3870
3CF0
1CE0
1CE0
0FC0
0FC0
0FC0
0780
0780
0780
0700
0700
0F00
0E00
7E00
7C00
7800
ENDCHAR
STARTCHAR triagleft.uni25C0
ENCODING 9664
SWIDTH 575 0
DWIDTH 17 0
BBX 15 15 1 2
BITMAP
0002
000E
003E
00FE
03FE
0FFE
3FFE
FFFE
3FFE
0FFE
03FE
00FE
003E
000E
0002
ENDCHAR
STARTCHAR germandblS.uni1E9E
ENCODING 7838
SWIDTH 575 0
DWIDTH 17 0
BBX 13 23 3 0
BITMAP
0FF8
3FF0
7FF0
7860
F0E0
E1C0
E1C0
E380
E380
E700
E700
EF80
E3E0
E0F0
E070
E078
E038
E038
E038
E878
EFF0
EFF0
E7C0
ENDCHAR
STARTCHAR Gamma.uni0393
ENCODING 915
SWIDTH 575 0
DWIDTH 17 0
BBX 13 22 3 0
BITMAP
FFF8
FFF8
FFF8
E000
E000
E000
E000
E000
E000
E000
E000
E000
E000
E000
E000
E000
E000
E000
E000
E000
E000
E000
ENDCHAR
ENDFONT
